<svg width="304" height="48" viewBox="0 0 304 48" fill="none" xmlns="http://www.w3.org/2000/svg">
<path d="M44 38C44 39.0609 43.5786 40.0783 42.8284 40.8284C42.0783 41.5786 41.0609 42 40 42H8C6.93913 42 5.92172 41.5786 5.17157 40.8284C4.42143 40.0783 4 39.0609 4 38V10C4 8.93913 4.42143 7.92172 5.17157 7.17157C5.92172 6.42143 6.93913 6 8 6H18L22 12H40C41.0609 12 42.0783 12.4214 42.8284 13.1716C43.5786 13.9217 44 14.9391 44 16V38Z" stroke="#1E1E1E" stroke-width="4" stroke-linecap="round" stroke-linejoin="round"/>
<path d="M64 26C64 14.9543 72.9543 6 84 6H283C294.046 6 303 14.9543 303 26V26C303 37.0457 294.046 46 283 46H84C72.9543 46 64 37.0457 64 26V26Z" fill="white"/>
<path d="M84 6.5H283V5.5H84V6.5ZM283 45.5H84V46.5H283V45.5ZM84 45.5C73.2304 45.5 64.5 36.7696 64.5 26H63.5C63.5 37.3218 72.6782 46.5 84 46.5V45.5ZM302.5 26C302.5 36.7696 293.77 45.5 283 45.5V46.5C294.322 46.5 303.5 37.3218 303.5 26H302.5ZM283 6.5C293.77 6.5 302.5 15.2304 302.5 26H303.5C303.5 14.6782 294.322 5.5 283 5.5V6.5ZM84 5.5C72.6782 5.5 63.5 14.6782 63.5 26H64.5C64.5 15.2304 73.2304 6.5 84 6.5V5.5Z" fill="#D9D9D9"/>
<path d="M153.878 32.1591C153.128 32.1591 152.46 32.0303 151.873 31.7727C151.289 31.5152 150.825 31.1572 150.481 30.6989C150.14 30.2367 149.954 29.7008 149.924 29.0909H151.356C151.386 29.4659 151.515 29.7898 151.742 30.0625C151.969 30.3314 152.267 30.5398 152.634 30.6875C153.001 30.8352 153.409 30.9091 153.856 30.9091C154.356 30.9091 154.799 30.822 155.185 30.6477C155.572 30.4735 155.875 30.2311 156.094 29.9205C156.314 29.6098 156.424 29.25 156.424 28.8409C156.424 28.4129 156.318 28.036 156.106 27.7102C155.894 27.3807 155.583 27.1231 155.174 26.9375C154.765 26.7519 154.265 26.6591 153.674 26.6591H152.742V25.4091H153.674C154.136 25.4091 154.541 25.3258 154.89 25.1591C155.242 24.9924 155.517 24.7576 155.714 24.4545C155.914 24.1515 156.015 23.7955 156.015 23.3864C156.015 22.9924 155.928 22.6496 155.753 22.358C155.579 22.0663 155.333 21.839 155.015 21.6761C154.7 21.5133 154.329 21.4318 153.901 21.4318C153.5 21.4318 153.121 21.5057 152.765 21.6534C152.412 21.7973 152.125 22.0076 151.901 22.2841C151.678 22.5568 151.556 22.8864 151.537 23.2727H150.174C150.197 22.6629 150.38 22.1288 150.725 21.6705C151.07 21.2083 151.52 20.8485 152.077 20.5909C152.638 20.3333 153.253 20.2045 153.924 20.2045C154.644 20.2045 155.261 20.3504 155.776 20.642C156.291 20.9299 156.687 21.3106 156.964 21.7841C157.24 22.2576 157.378 22.7689 157.378 23.3182C157.378 23.9735 157.206 24.5322 156.861 24.9943C156.52 25.4564 156.056 25.7765 155.469 25.9545V26.0455C156.204 26.1667 156.778 26.4792 157.191 26.983C157.604 27.483 157.81 28.1023 157.81 28.8409C157.81 29.4735 157.638 30.0417 157.293 30.5455C156.952 31.0455 156.486 31.4394 155.895 31.7273C155.305 32.0152 154.632 32.1591 153.878 32.1591ZM161.215 32.0909C160.935 32.0909 160.694 31.9905 160.493 31.7898C160.293 31.589 160.192 31.3485 160.192 31.0682C160.192 30.7879 160.293 30.5473 160.493 30.3466C160.694 30.1458 160.935 30.0455 161.215 30.0455C161.495 30.0455 161.736 30.1458 161.937 30.3466C162.137 30.5473 162.238 30.7879 162.238 31.0682C162.238 31.2538 162.19 31.4242 162.096 31.5795C162.005 31.7348 161.882 31.8598 161.726 31.9545C161.575 32.0455 161.404 32.0909 161.215 32.0909ZM170.159 32V20.3636H171.568V25.5455H177.773V20.3636H179.182V32H177.773V26.7955H171.568V32H170.159ZM185.366 32.1818C184.579 32.1818 183.887 31.9943 183.293 31.6193C182.702 31.2443 182.24 30.7197 181.906 30.0455C181.577 29.3712 181.412 28.5833 181.412 27.6818C181.412 26.7727 181.577 25.9792 181.906 25.3011C182.24 24.6231 182.702 24.0966 183.293 23.7216C183.887 23.3466 184.579 23.1591 185.366 23.1591C186.154 23.1591 186.844 23.3466 187.435 23.7216C188.029 24.0966 188.491 24.6231 188.821 25.3011C189.154 25.9792 189.321 26.7727 189.321 27.6818C189.321 28.5833 189.154 29.3712 188.821 30.0455C188.491 30.7197 188.029 31.2443 187.435 31.6193C186.844 31.9943 186.154 32.1818 185.366 32.1818ZM185.366 30.9773C185.965 30.9773 186.457 30.8239 186.844 30.517C187.23 30.2102 187.516 29.8068 187.702 29.3068C187.887 28.8068 187.98 28.2652 187.98 27.6818C187.98 27.0985 187.887 26.5549 187.702 26.0511C187.516 25.5473 187.23 25.1402 186.844 24.8295C186.457 24.5189 185.965 24.3636 185.366 24.3636C184.768 24.3636 184.276 24.5189 183.889 24.8295C183.503 25.1402 183.217 25.5473 183.031 26.0511C182.846 26.5549 182.753 27.0985 182.753 27.6818C182.753 28.2652 182.846 28.8068 183.031 29.3068C183.217 29.8068 183.503 30.2102 183.889 30.517C184.276 30.8239 184.768 30.9773 185.366 30.9773ZM194.663 32.1818C193.936 32.1818 193.294 31.9981 192.737 31.6307C192.18 31.2595 191.745 30.7367 191.43 30.0625C191.116 29.3845 190.959 28.5833 190.959 27.6591C190.959 26.7424 191.116 25.947 191.43 25.2727C191.745 24.5985 192.182 24.0777 192.743 23.7102C193.304 23.3428 193.951 23.1591 194.686 23.1591C195.254 23.1591 195.703 23.2538 196.033 23.4432C196.366 23.6288 196.62 23.8409 196.794 24.0795C196.972 24.3144 197.11 24.5076 197.209 24.6591H197.322V20.3636H198.663V32H197.368V30.6591H197.209C197.11 30.8182 196.97 31.0189 196.788 31.2614C196.607 31.5 196.347 31.714 196.01 31.9034C195.673 32.089 195.224 32.1818 194.663 32.1818ZM194.845 30.9773C195.383 30.9773 195.838 30.8371 196.209 30.5568C196.58 30.2727 196.862 29.8807 197.055 29.3807C197.249 28.8769 197.345 28.2955 197.345 27.6364C197.345 26.9848 197.25 26.4148 197.061 25.9261C196.872 25.4337 196.591 25.0511 196.22 24.7784C195.849 24.5019 195.391 24.3636 194.845 24.3636C194.277 24.3636 193.804 24.5095 193.425 24.8011C193.05 25.089 192.768 25.4811 192.578 25.9773C192.393 26.4697 192.3 27.0227 192.3 27.6364C192.3 28.2576 192.394 28.822 192.584 29.3295C192.777 29.8333 193.061 30.2348 193.436 30.5341C193.815 30.8295 194.285 30.9773 194.845 30.9773ZM201.305 32V23.2727H202.646V32H201.305ZM201.987 21.8182C201.726 21.8182 201.5 21.7292 201.311 21.5511C201.125 21.3731 201.033 21.1591 201.033 20.9091C201.033 20.6591 201.125 20.4451 201.311 20.267C201.5 20.089 201.726 20 201.987 20C202.249 20 202.472 20.089 202.658 20.267C202.847 20.4451 202.942 20.6591 202.942 20.9091C202.942 21.1591 202.847 21.3731 202.658 21.5511C202.472 21.7292 202.249 21.8182 201.987 21.8182ZM206.443 26.75V32H205.102V23.2727H206.398V24.6364H206.511C206.716 24.1932 207.027 23.8371 207.443 23.5682C207.86 23.2955 208.398 23.1591 209.057 23.1591C209.648 23.1591 210.165 23.2803 210.608 23.5227C211.051 23.7614 211.396 24.125 211.642 24.6136C211.888 25.0985 212.011 25.7121 212.011 26.4545V32H210.67V26.5455C210.67 25.8598 210.492 25.3258 210.136 24.9432C209.78 24.5568 209.292 24.3636 208.67 24.3636C208.242 24.3636 207.86 24.4564 207.523 24.642C207.189 24.8277 206.926 25.0985 206.733 25.4545C206.54 25.8106 206.443 26.2424 206.443 26.75ZM217.03 32.2045C216.477 32.2045 215.975 32.1004 215.524 31.892C215.073 31.6799 214.715 31.375 214.45 30.9773C214.185 30.5758 214.053 30.0909 214.053 29.5227C214.053 29.0227 214.151 28.6174 214.348 28.3068C214.545 27.9924 214.808 27.7462 215.138 27.5682C215.467 27.3902 215.831 27.2576 216.229 27.1705C216.63 27.0795 217.034 27.0076 217.439 26.9545C217.969 26.8864 218.399 26.8352 218.729 26.8011C219.062 26.7633 219.304 26.7008 219.456 26.6136C219.611 26.5265 219.689 26.375 219.689 26.1591V26.1136C219.689 25.553 219.536 25.1174 219.229 24.8068C218.926 24.4962 218.465 24.3409 217.848 24.3409C217.208 24.3409 216.706 24.4811 216.342 24.7614C215.979 25.0417 215.723 25.3409 215.575 25.6591L214.303 25.2045C214.53 24.6742 214.833 24.2614 215.212 23.9659C215.594 23.6667 216.011 23.4583 216.462 23.3409C216.916 23.2197 217.363 23.1591 217.803 23.1591C218.083 23.1591 218.405 23.1932 218.768 23.2614C219.136 23.3258 219.49 23.4602 219.831 23.6648C220.176 23.8693 220.462 24.178 220.689 24.5909C220.916 25.0038 221.03 25.5568 221.03 26.25V32H219.689V30.8182H219.621C219.53 31.0076 219.378 31.2102 219.166 31.4261C218.954 31.642 218.672 31.8258 218.32 31.9773C217.967 32.1288 217.537 32.2045 217.03 32.2045ZM217.234 31C217.765 31 218.212 30.8958 218.575 30.6875C218.943 30.4792 219.219 30.2102 219.405 29.8807C219.594 29.5511 219.689 29.2045 219.689 28.8409V27.6136C219.632 27.6818 219.507 27.7443 219.314 27.8011C219.125 27.8542 218.905 27.9015 218.655 27.9432C218.409 27.9811 218.168 28.0152 217.933 28.0455C217.702 28.072 217.515 28.0947 217.371 28.1136C217.022 28.1591 216.696 28.233 216.393 28.3352C216.094 28.4337 215.852 28.5833 215.666 28.7841C215.484 28.9811 215.393 29.25 215.393 29.5909C215.393 30.0568 215.566 30.4091 215.911 30.6477C216.259 30.8826 216.7 31 217.234 31Z" fill="#1E1E1E"/>
</svg>
