<svg width="304" height="48" viewBox="0 0 304 48" fill="none" xmlns="http://www.w3.org/2000/svg">
<path d="M44 38C44 39.0609 43.5786 40.0783 42.8284 40.8284C42.0783 41.5786 41.0609 42 40 42H8C6.93913 42 5.92172 41.5786 5.17157 40.8284C4.42143 40.0783 4 39.0609 4 38V10C4 8.93913 4.42143 7.92172 5.17157 7.17157C5.92172 6.42143 6.93913 6 8 6H18L22 12H40C41.0609 12 42.0783 12.4214 42.8284 13.1716C43.5786 13.9217 44 14.9391 44 16V38Z" stroke="#1E1E1E" stroke-width="4" stroke-linecap="round" stroke-linejoin="round"/>
<path d="M64 26C64 14.9543 72.9543 6 84 6H283C294.046 6 303 14.9543 303 26V26C303 37.0457 294.046 46 283 46H84C72.9543 46 64 37.0457 64 26V26Z" fill="white"/>
<path d="M84 6.5H283V5.5H84V6.5ZM283 45.5H84V46.5H283V45.5ZM84 45.5C73.2304 45.5 64.5 36.7696 64.5 26H63.5C63.5 37.3218 72.6782 46.5 84 46.5V45.5ZM302.5 26C302.5 36.7696 293.77 45.5 283 45.5V46.5C294.322 46.5 303.5 37.3218 303.5 26H302.5ZM283 6.5C293.77 6.5 302.5 15.2304 302.5 26H303.5C303.5 14.6782 294.322 5.5 283 5.5V6.5ZM84 5.5C72.6782 5.5 63.5 14.6782 63.5 26H64.5C64.5 15.2304 73.2304 6.5 84 6.5V5.5Z" fill="#D9D9D9"/>
<path d="M158.667 32V20.3636H162.735C163.546 20.3636 164.214 20.5038 164.741 20.7841C165.267 21.0606 165.659 21.4337 165.917 21.9034C166.174 22.3693 166.303 22.8864 166.303 23.4545C166.303 23.9545 166.214 24.3674 166.036 24.6932C165.862 25.0189 165.631 25.2765 165.343 25.4659C165.059 25.6553 164.75 25.7955 164.417 25.8864V26C164.773 26.0227 165.131 26.1477 165.491 26.375C165.851 26.6023 166.152 26.928 166.394 27.3523C166.637 27.7765 166.758 28.2955 166.758 28.9091C166.758 29.4924 166.625 30.017 166.36 30.483C166.095 30.9489 165.676 31.3182 165.104 31.5909C164.532 31.8636 163.788 32 162.871 32H158.667ZM160.076 30.75H162.871C163.792 30.75 164.445 30.572 164.832 30.2159C165.222 29.8561 165.417 29.4205 165.417 28.9091C165.417 28.5152 165.317 28.1515 165.116 27.8182C164.915 27.4811 164.629 27.2121 164.258 27.0114C163.887 26.8068 163.447 26.7045 162.94 26.7045H160.076V30.75ZM160.076 25.4773H162.69C163.114 25.4773 163.496 25.3939 163.837 25.2273C164.182 25.0606 164.455 24.8258 164.656 24.5227C164.86 24.2197 164.962 23.8636 164.962 23.4545C164.962 22.9432 164.784 22.5095 164.428 22.1534C164.072 21.7936 163.508 21.6136 162.735 21.6136H160.076V25.4773ZM168.891 32V23.2727H170.187V24.5909H170.278C170.437 24.1591 170.725 23.8087 171.141 23.5398C171.558 23.2708 172.028 23.1364 172.55 23.1364C172.649 23.1364 172.772 23.1383 172.92 23.142C173.067 23.1458 173.179 23.1515 173.255 23.1591V24.5227C173.21 24.5114 173.105 24.4943 172.942 24.4716C172.783 24.4451 172.615 24.4318 172.437 24.4318C172.013 24.4318 171.634 24.5208 171.3 24.6989C170.971 24.8731 170.71 25.1155 170.516 25.4261C170.327 25.733 170.232 26.0833 170.232 26.4773V32H168.891ZM169.778 19.7727L170.96 21.3636L172.141 19.7727H173.414V19.8636L171.573 22.2273H170.346L168.505 19.8636V19.7727H169.778ZM178.238 32.1818C177.397 32.1818 176.672 31.9962 176.062 31.625C175.456 31.25 174.988 30.7273 174.658 30.0568C174.333 29.3826 174.17 28.5985 174.17 27.7045C174.17 26.8106 174.333 26.0227 174.658 25.3409C174.988 24.6553 175.446 24.1212 176.033 23.7386C176.624 23.3523 177.314 23.1591 178.102 23.1591C178.556 23.1591 179.005 23.2348 179.448 23.3864C179.891 23.5379 180.295 23.7841 180.658 24.125C181.022 24.4621 181.312 24.9091 181.528 25.4659C181.744 26.0227 181.852 26.7083 181.852 27.5227V28.0909H175.124V26.9318H180.488C180.488 26.4394 180.389 26 180.192 25.6136C179.999 25.2273 179.723 24.9223 179.363 24.6989C179.007 24.4754 178.586 24.3636 178.102 24.3636C177.567 24.3636 177.105 24.4962 176.715 24.7614C176.329 25.0227 176.031 25.3636 175.823 25.7841C175.615 26.2045 175.511 26.6553 175.511 27.1364V27.9091C175.511 28.5682 175.624 29.1269 175.852 29.5852C176.083 30.0398 176.403 30.3864 176.812 30.625C177.221 30.8598 177.696 30.9773 178.238 30.9773C178.59 30.9773 178.908 30.928 179.192 30.8295C179.48 30.7273 179.728 30.5758 179.937 30.375C180.145 30.1705 180.306 29.9167 180.42 29.6136L181.715 29.9773C181.579 30.4167 181.35 30.803 181.028 31.1364C180.706 31.4659 180.308 31.7235 179.835 31.9091C179.361 32.0909 178.829 32.1818 178.238 32.1818ZM183.641 32V30.9773L188.596 24.6136V24.5227H183.8V23.2727H190.323V24.3409L185.505 30.6591V30.75H190.482V32H183.641ZM195.957 32.1818C195.116 32.1818 194.39 31.9962 193.781 31.625C193.174 31.25 192.707 30.7273 192.377 30.0568C192.051 29.3826 191.888 28.5985 191.888 27.7045C191.888 26.8106 192.051 26.0227 192.377 25.3409C192.707 24.6553 193.165 24.1212 193.752 23.7386C194.343 23.3523 195.032 23.1591 195.82 23.1591C196.275 23.1591 196.724 23.2348 197.167 23.3864C197.61 23.5379 198.013 23.7841 198.377 24.125C198.741 24.4621 199.031 24.9091 199.246 25.4659C199.462 26.0227 199.57 26.7083 199.57 27.5227V28.0909H192.843V26.9318H198.207C198.207 26.4394 198.108 26 197.911 25.6136C197.718 25.2273 197.442 24.9223 197.082 24.6989C196.726 24.4754 196.305 24.3636 195.82 24.3636C195.286 24.3636 194.824 24.4962 194.434 24.7614C194.048 25.0227 193.75 25.3636 193.542 25.7841C193.334 26.2045 193.229 26.6553 193.229 27.1364V27.9091C193.229 28.5682 193.343 29.1269 193.57 29.5852C193.801 30.0398 194.121 30.3864 194.531 30.625C194.94 30.8598 195.415 30.9773 195.957 30.9773C196.309 30.9773 196.627 30.928 196.911 30.8295C197.199 30.7273 197.447 30.5758 197.656 30.375C197.864 30.1705 198.025 29.9167 198.138 29.6136L199.434 29.9773C199.298 30.4167 199.068 30.803 198.746 31.1364C198.424 31.4659 198.027 31.7235 197.553 31.9091C197.08 32.0909 196.548 32.1818 195.957 32.1818ZM202.951 26.75V32H201.61V23.2727H202.906V24.6364H203.019C203.224 24.1932 203.534 23.8371 203.951 23.5682C204.368 23.2955 204.906 23.1591 205.565 23.1591C206.156 23.1591 206.673 23.2803 207.116 23.5227C207.559 23.7614 207.904 24.125 208.15 24.6136C208.396 25.0985 208.519 25.7121 208.519 26.4545V32H207.178V26.5455C207.178 25.8598 207 25.3258 206.644 24.9432C206.288 24.5568 205.799 24.3636 205.178 24.3636C204.75 24.3636 204.368 24.4564 204.031 24.642C203.697 24.8277 203.434 25.0985 203.241 25.4545C203.048 25.8106 202.951 26.2424 202.951 26.75Z" fill="#1E1E1E"/>
</svg>
