<svg width="304" height="48" viewBox="0 0 304 48" fill="none" xmlns="http://www.w3.org/2000/svg">
<path d="M44 38C44 39.0609 43.5786 40.0783 42.8284 40.8284C42.0783 41.5786 41.0609 42 40 42H8C6.93913 42 5.92172 41.5786 5.17157 40.8284C4.42143 40.0783 4 39.0609 4 38V10C4 8.93913 4.42143 7.92172 5.17157 7.17157C5.92172 6.42143 6.93913 6 8 6H18L22 12H40C41.0609 12 42.0783 12.4214 42.8284 13.1716C43.5786 13.9217 44 14.9391 44 16V38Z" stroke="#1E1E1E" stroke-width="4" stroke-linecap="round" stroke-linejoin="round"/>
<path d="M64 26C64 14.9543 72.9543 6 84 6H283C294.046 6 303 14.9543 303 26V26C303 37.0457 294.046 46 283 46H84C72.9543 46 64 37.0457 64 26V26Z" fill="white"/>
<path d="M84 6.5H283V5.5H84V6.5ZM283 45.5H84V46.5H283V45.5ZM84 45.5C73.2304 45.5 64.5 36.7696 64.5 26H63.5C63.5 37.3218 72.6782 46.5 84 46.5V45.5ZM302.5 26C302.5 36.7696 293.77 45.5 283 45.5V46.5C294.322 46.5 303.5 37.3218 303.5 26H302.5ZM283 6.5C293.77 6.5 302.5 15.2304 302.5 26H303.5C303.5 14.6782 294.322 5.5 283 5.5V6.5ZM84 5.5C72.6782 5.5 63.5 14.6782 63.5 26H64.5C64.5 15.2304 73.2304 6.5 84 6.5V5.5Z" fill="#D9D9D9"/>
<path d="M167.054 24H165.645C165.562 23.5947 165.416 23.2386 165.207 22.9318C165.003 22.625 164.753 22.3674 164.457 22.1591C164.166 21.947 163.842 21.7879 163.486 21.6818C163.13 21.5758 162.759 21.5227 162.372 21.5227C161.668 21.5227 161.029 21.7008 160.457 22.0568C159.889 22.4129 159.437 22.9375 159.099 23.6307C158.766 24.3239 158.599 25.1742 158.599 26.1818C158.599 27.1894 158.766 28.0398 159.099 28.733C159.437 29.4261 159.889 29.9508 160.457 30.3068C161.029 30.6629 161.668 30.8409 162.372 30.8409C162.759 30.8409 163.13 30.7879 163.486 30.6818C163.842 30.5758 164.166 30.4186 164.457 30.2102C164.753 29.9981 165.003 29.7386 165.207 29.4318C165.416 29.1212 165.562 28.7652 165.645 28.3636H167.054C166.948 28.9583 166.755 29.4905 166.474 29.9602C166.194 30.4299 165.846 30.8295 165.429 31.1591C165.012 31.4848 164.545 31.733 164.026 31.9034C163.51 32.0739 162.959 32.1591 162.372 32.1591C161.38 32.1591 160.497 31.9167 159.724 31.4318C158.952 30.947 158.344 30.2576 157.901 29.3636C157.457 28.4697 157.236 27.4091 157.236 26.1818C157.236 24.9545 157.457 23.8939 157.901 23C158.344 22.1061 158.952 21.4167 159.724 20.9318C160.497 20.447 161.38 20.2045 162.372 20.2045C162.959 20.2045 163.51 20.2898 164.026 20.4602C164.545 20.6307 165.012 20.8807 165.429 21.2102C165.846 21.536 166.194 21.9337 166.474 22.4034C166.755 22.8693 166.948 23.4015 167.054 24ZM161.19 16.8636L162.372 18.4545L163.554 16.8636H164.827V16.9545L162.986 19.3182H161.759L159.918 16.9545V16.8636H161.19ZM172.808 32.1818C171.967 32.1818 171.242 31.9962 170.632 31.625C170.026 31.25 169.558 30.7273 169.229 30.0568C168.903 29.3826 168.74 28.5985 168.74 27.7045C168.74 26.8106 168.903 26.0227 169.229 25.3409C169.558 24.6553 170.017 24.1212 170.604 23.7386C171.195 23.3523 171.884 23.1591 172.672 23.1591C173.126 23.1591 173.575 23.2348 174.018 23.3864C174.462 23.5379 174.865 23.7841 175.229 24.125C175.592 24.4621 175.882 24.9091 176.098 25.4659C176.314 26.0227 176.422 26.7083 176.422 27.5227V28.0909H169.695V26.9318H175.058C175.058 26.4394 174.96 26 174.763 25.6136C174.57 25.2273 174.293 24.9223 173.933 24.6989C173.577 24.4754 173.157 24.3636 172.672 24.3636C172.138 24.3636 171.676 24.4962 171.286 24.7614C170.899 25.0227 170.602 25.3636 170.393 25.7841C170.185 26.2045 170.081 26.6553 170.081 27.1364V27.9091C170.081 28.5682 170.195 29.1269 170.422 29.5852C170.653 30.0398 170.973 30.3864 171.382 30.625C171.791 30.8598 172.267 30.9773 172.808 30.9773C173.161 30.9773 173.479 30.928 173.763 30.8295C174.051 30.7273 174.299 30.5758 174.507 30.375C174.715 30.1705 174.876 29.9167 174.99 29.6136L176.286 29.9773C176.149 30.4167 175.92 30.803 175.598 31.1364C175.276 31.4659 174.878 31.7235 174.405 31.9091C173.931 32.0909 173.399 32.1818 172.808 32.1818ZM178.462 32V23.2727H179.757V24.5909H179.848C180.007 24.1591 180.295 23.8087 180.712 23.5398C181.128 23.2708 181.598 23.1364 182.121 23.1364C182.219 23.1364 182.342 23.1383 182.49 23.142C182.638 23.1458 182.75 23.1515 182.825 23.1591V24.5227C182.78 24.5114 182.676 24.4943 182.513 24.4716C182.354 24.4451 182.185 24.4318 182.007 24.4318C181.583 24.4318 181.204 24.5208 180.871 24.6989C180.541 24.8731 180.28 25.1155 180.087 25.4261C179.897 25.733 179.803 26.0833 179.803 26.4773V32H178.462ZM191.817 23.2727L188.589 32H187.226L183.999 23.2727H185.453L187.862 30.2273H187.953L190.362 23.2727H191.817ZM196.933 32.1818C196.092 32.1818 195.367 31.9962 194.757 31.625C194.151 31.25 193.683 30.7273 193.354 30.0568C193.028 29.3826 192.865 28.5985 192.865 27.7045C192.865 26.8106 193.028 26.0227 193.354 25.3409C193.683 24.6553 194.142 24.1212 194.729 23.7386C195.32 23.3523 196.009 23.1591 196.797 23.1591C197.251 23.1591 197.7 23.2348 198.143 23.3864C198.587 23.5379 198.99 23.7841 199.354 24.125C199.717 24.4621 200.007 24.9091 200.223 25.4659C200.439 26.0227 200.547 26.7083 200.547 27.5227V28.0909H193.82V26.9318H199.183C199.183 26.4394 199.085 26 198.888 25.6136C198.695 25.2273 198.418 24.9223 198.058 24.6989C197.702 24.4754 197.282 24.3636 196.797 24.3636C196.263 24.3636 195.801 24.4962 195.411 24.7614C195.024 25.0227 194.727 25.3636 194.518 25.7841C194.31 26.2045 194.206 26.6553 194.206 27.1364V27.9091C194.206 28.5682 194.32 29.1269 194.547 29.5852C194.778 30.0398 195.098 30.3864 195.507 30.625C195.916 30.8598 196.392 30.9773 196.933 30.9773C197.286 30.9773 197.604 30.928 197.888 30.8295C198.176 30.7273 198.424 30.5758 198.632 30.375C198.84 30.1705 199.001 29.9167 199.115 29.6136L200.411 29.9773C200.274 30.4167 200.045 30.803 199.723 31.1364C199.401 31.4659 199.003 31.7235 198.53 31.9091C198.056 32.0909 197.524 32.1818 196.933 32.1818ZM203.928 26.75V32H202.587V23.2727H203.882V24.6364H203.996C204.2 24.1932 204.511 23.8371 204.928 23.5682C205.344 23.2955 205.882 23.1591 206.541 23.1591C207.132 23.1591 207.649 23.2803 208.092 23.5227C208.536 23.7614 208.88 24.125 209.126 24.6136C209.373 25.0985 209.496 25.7121 209.496 26.4545V32H208.155V26.5455C208.155 25.8598 207.977 25.3258 207.621 24.9432C207.265 24.5568 206.776 24.3636 206.155 24.3636C205.727 24.3636 205.344 24.4564 205.007 24.642C204.674 24.8277 204.411 25.0985 204.217 25.4545C204.024 25.8106 203.928 26.2424 203.928 26.75Z" fill="#1E1E1E"/>
</svg>
