<svg width="304" height="48" viewBox="0 0 304 48" fill="none" xmlns="http://www.w3.org/2000/svg">
<path d="M44 38C44 39.0609 43.5786 40.0783 42.8284 40.8284C42.0783 41.5786 41.0609 42 40 42H8C6.93913 42 5.92172 41.5786 5.17157 40.8284C4.42143 40.0783 4 39.0609 4 38V10C4 8.93913 4.42143 7.92172 5.17157 7.17157C5.92172 6.42143 6.93913 6 8 6H18L22 12H40C41.0609 12 42.0783 12.4214 42.8284 13.1716C43.5786 13.9217 44 14.9391 44 16V38Z" stroke="#1E1E1E" stroke-width="4" stroke-linecap="round" stroke-linejoin="round"/>
<path d="M64 26C64 14.9543 72.9543 6 84 6H283C294.046 6 303 14.9543 303 26V26C303 37.0457 294.046 46 283 46H84C72.9543 46 64 37.0457 64 26V26Z" fill="white"/>
<path d="M84 6.5H283V5.5H84V6.5ZM283 45.5H84V46.5H283V45.5ZM84 45.5C73.2304 45.5 64.5 36.7696 64.5 26H63.5C63.5 37.3218 72.6782 46.5 84 46.5V45.5ZM302.5 26C302.5 36.7696 293.77 45.5 283 45.5V46.5C294.322 46.5 303.5 37.3218 303.5 26H302.5ZM283 6.5C293.77 6.5 302.5 15.2304 302.5 26H303.5C303.5 14.6782 294.322 5.5 283 5.5V6.5ZM84 5.5C72.6782 5.5 63.5 14.6782 63.5 26H64.5C64.5 15.2304 73.2304 6.5 84 6.5V5.5Z" fill="#D9D9D9"/>
<path d="M163.797 32H160.206V20.3636H163.956C165.085 20.3636 166.051 20.5966 166.854 21.0625C167.657 21.5246 168.272 22.1894 168.7 23.0568C169.128 23.9205 169.342 24.9545 169.342 26.1591C169.342 27.3712 169.126 28.4148 168.695 29.2898C168.263 30.161 167.634 30.8314 166.808 31.3011C165.982 31.767 164.979 32 163.797 32ZM161.615 30.75H163.706C164.668 30.75 165.465 30.5644 166.098 30.1932C166.731 29.822 167.202 29.2936 167.513 28.608C167.823 27.9223 167.979 27.1061 167.979 26.1591C167.979 25.2197 167.825 24.411 167.518 23.733C167.212 23.0511 166.753 22.5284 166.143 22.1648C165.534 21.7973 164.774 21.6136 163.865 21.6136H161.615V30.75ZM177.024 28.4318V23.2727H178.365V32H177.024V30.5227H176.933C176.729 30.9659 176.411 31.3428 175.979 31.6534C175.547 31.9602 175.001 32.1136 174.342 32.1136C173.797 32.1136 173.312 31.9943 172.888 31.7557C172.464 31.5133 172.13 31.1496 171.888 30.6648C171.645 30.1761 171.524 29.5606 171.524 28.8182V23.2727H172.865V28.7273C172.865 29.3636 173.043 29.8712 173.399 30.25C173.759 30.6288 174.217 30.8182 174.774 30.8182C175.107 30.8182 175.446 30.733 175.791 30.5625C176.14 30.392 176.431 30.1307 176.666 29.7784C176.905 29.4261 177.024 28.9773 177.024 28.4318ZM181.003 32V20.3636H182.344V24.6591H182.457C182.556 24.5076 182.692 24.3144 182.866 24.0795C183.045 23.8409 183.298 23.6288 183.628 23.4432C183.961 23.2538 184.412 23.1591 184.98 23.1591C185.715 23.1591 186.363 23.3428 186.923 23.7102C187.484 24.0777 187.921 24.5985 188.236 25.2727C188.55 25.947 188.707 26.7424 188.707 27.6591C188.707 28.5833 188.55 29.3845 188.236 30.0625C187.921 30.7367 187.486 31.2595 186.929 31.6307C186.372 31.9981 185.73 32.1818 185.003 32.1818C184.442 32.1818 183.993 32.089 183.656 31.9034C183.319 31.714 183.06 31.5 182.878 31.2614C182.696 31.0189 182.556 30.8182 182.457 30.6591H182.298V32H181.003ZM182.321 27.6364C182.321 28.2955 182.418 28.8769 182.611 29.3807C182.804 29.8807 183.086 30.2727 183.457 30.5568C183.829 30.8371 184.283 30.9773 184.821 30.9773C185.382 30.9773 185.849 30.8295 186.224 30.5341C186.603 30.2348 186.887 29.8333 187.077 29.3295C187.27 28.822 187.366 28.2576 187.366 27.6364C187.366 27.0227 187.272 26.4697 187.082 25.9773C186.897 25.4811 186.615 25.089 186.236 24.8011C185.861 24.5095 185.389 24.3636 184.821 24.3636C184.276 24.3636 183.817 24.5019 183.446 24.7784C183.075 25.0511 182.795 25.4337 182.605 25.9261C182.416 26.4148 182.321 26.9848 182.321 27.6364ZM194.418 32.1818C193.577 32.1818 192.851 31.9962 192.241 31.625C191.635 31.25 191.168 30.7273 190.838 30.0568C190.512 29.3826 190.349 28.5985 190.349 27.7045C190.349 26.8106 190.512 26.0227 190.838 25.3409C191.168 24.6553 191.626 24.1212 192.213 23.7386C192.804 23.3523 193.493 23.1591 194.281 23.1591C194.736 23.1591 195.185 23.2348 195.628 23.3864C196.071 23.5379 196.474 23.7841 196.838 24.125C197.202 24.4621 197.491 24.9091 197.707 25.4659C197.923 26.0227 198.031 26.7083 198.031 27.5227V28.0909H191.304V26.9318H196.668C196.668 26.4394 196.569 26 196.372 25.6136C196.179 25.2273 195.902 24.9223 195.543 24.6989C195.187 24.4754 194.766 24.3636 194.281 24.3636C193.747 24.3636 193.285 24.4962 192.895 24.7614C192.509 25.0227 192.211 25.3636 192.003 25.7841C191.795 26.2045 191.69 26.6553 191.69 27.1364V27.9091C191.69 28.5682 191.804 29.1269 192.031 29.5852C192.262 30.0398 192.582 30.3864 192.991 30.625C193.401 30.8598 193.876 30.9773 194.418 30.9773C194.77 30.9773 195.088 30.928 195.372 30.8295C195.66 30.7273 195.908 30.5758 196.116 30.375C196.325 30.1705 196.486 29.9167 196.599 29.6136L197.895 29.9773C197.759 30.4167 197.529 30.803 197.207 31.1364C196.885 31.4659 196.488 31.7235 196.014 31.9091C195.541 32.0909 195.009 32.1818 194.418 32.1818ZM201.412 26.75V32H200.071V23.2727H201.366V24.6364H201.48C201.685 24.1932 201.995 23.8371 202.412 23.5682C202.829 23.2955 203.366 23.1591 204.026 23.1591C204.616 23.1591 205.134 23.2803 205.577 23.5227C206.02 23.7614 206.365 24.125 206.611 24.6136C206.857 25.0985 206.98 25.7121 206.98 26.4545V32H205.639V26.5455C205.639 25.8598 205.461 25.3258 205.105 24.9432C204.749 24.5568 204.26 24.3636 203.639 24.3636C203.211 24.3636 202.829 24.4564 202.491 24.642C202.158 24.8277 201.895 25.0985 201.702 25.4545C201.509 25.8106 201.412 26.2424 201.412 26.75Z" fill="#1E1E1E"/>
</svg>
