<svg width="304" height="48" viewBox="0 0 304 48" fill="none" xmlns="http://www.w3.org/2000/svg">
<path d="M44 38C44 39.0609 43.5786 40.0783 42.8284 40.8284C42.0783 41.5786 41.0609 42 40 42H8C6.93913 42 5.92172 41.5786 5.17157 40.8284C4.42143 40.0783 4 39.0609 4 38V10C4 8.93913 4.42143 7.92172 5.17157 7.17157C5.92172 6.42143 6.93913 6 8 6H18L22 12H40C41.0609 12 42.0783 12.4214 42.8284 13.1716C43.5786 13.9217 44 14.9391 44 16V38Z" stroke="#1E1E1E" stroke-width="4" stroke-linecap="round" stroke-linejoin="round"/>
<path d="M64 26C64 14.9543 72.9543 6 84 6H283C294.046 6 303 14.9543 303 26C303 37.0457 294.046 46 283 46H84C72.9543 46 64 37.0457 64 26Z" fill="white"/>
<path d="M84 6.5H283V5.5H84V6.5ZM283 45.5H84V46.5H283V45.5ZM84 45.5C73.2304 45.5 64.5 36.7696 64.5 26H63.5C63.5 37.3218 72.6782 46.5 84 46.5V45.5ZM302.5 26C302.5 36.7696 293.77 45.5 283 45.5V46.5C294.322 46.5 303.5 37.3218 303.5 26H302.5ZM283 6.5C293.77 6.5 302.5 15.2304 302.5 26H303.5C303.5 14.6782 294.322 5.5 283 5.5V6.5ZM84 5.5C72.6782 5.5 63.5 14.6782 63.5 26H64.5C64.5 15.2304 73.2304 6.5 84 6.5V5.5Z" fill="#D9D9D9"/>
<path d="M156.909 20.3636V32H155.5V21.8409H155.432L152.591 23.7273V22.2955L155.5 20.3636H156.909ZM162.723 32.0909C162.443 32.0909 162.202 31.9905 162.001 31.7898C161.8 31.589 161.7 31.3485 161.7 31.0682C161.7 30.7879 161.8 30.5473 162.001 30.3466C162.202 30.1458 162.443 30.0455 162.723 30.0455C163.003 30.0455 163.244 30.1458 163.444 30.3466C163.645 30.5473 163.746 30.7879 163.746 31.0682C163.746 31.2538 163.698 31.4242 163.604 31.5795C163.513 31.7348 163.389 31.8598 163.234 31.9545C163.083 32.0455 162.912 32.0909 162.723 32.0909ZM171.667 32V20.3636H175.599C176.508 20.3636 177.254 20.5189 177.837 20.8295C178.421 21.1364 178.853 21.5587 179.133 22.0966C179.413 22.6345 179.553 23.2462 179.553 23.9318C179.553 24.6174 179.413 25.2254 179.133 25.7557C178.853 26.286 178.423 26.7027 177.843 27.0057C177.263 27.3049 176.523 27.4545 175.621 27.4545H172.44V26.1818H175.576C176.197 26.1818 176.697 26.0909 177.076 25.9091C177.459 25.7273 177.735 25.4697 177.906 25.1364C178.08 24.7992 178.167 24.3977 178.167 23.9318C178.167 23.4659 178.08 23.0587 177.906 22.7102C177.731 22.3617 177.453 22.0928 177.07 21.9034C176.688 21.7102 176.182 21.6136 175.553 21.6136H173.076V32H171.667ZM177.144 26.7727L180.008 32H178.371L175.553 26.7727H177.144ZM185.171 32.1818C184.383 32.1818 183.692 31.9943 183.097 31.6193C182.506 31.2443 182.044 30.7197 181.711 30.0455C181.381 29.3712 181.217 28.5833 181.217 27.6818C181.217 26.7727 181.381 25.9792 181.711 25.3011C182.044 24.6231 182.506 24.0966 183.097 23.7216C183.692 23.3466 184.383 23.1591 185.171 23.1591C185.959 23.1591 186.648 23.3466 187.239 23.7216C187.834 24.0966 188.296 24.6231 188.626 25.3011C188.959 25.9792 189.126 26.7727 189.126 27.6818C189.126 28.5833 188.959 29.3712 188.626 30.0455C188.296 30.7197 187.834 31.2443 187.239 31.6193C186.648 31.9943 185.959 32.1818 185.171 32.1818ZM185.171 30.9773C185.77 30.9773 186.262 30.8239 186.648 30.517C187.035 30.2102 187.321 29.8068 187.506 29.3068C187.692 28.8068 187.785 28.2652 187.785 27.6818C187.785 27.0985 187.692 26.5549 187.506 26.0511C187.321 25.5473 187.035 25.1402 186.648 24.8295C186.262 24.5189 185.77 24.3636 185.171 24.3636C184.573 24.3636 184.08 24.5189 183.694 24.8295C183.308 25.1402 183.022 25.5473 182.836 26.0511C182.65 26.5549 182.558 27.0985 182.558 27.6818C182.558 28.2652 182.65 28.8068 182.836 29.3068C183.022 29.8068 183.308 30.2102 183.694 30.517C184.08 30.8239 184.573 30.9773 185.171 30.9773ZM194.718 32.1818C193.9 32.1818 193.195 31.9886 192.604 31.6023C192.013 31.2159 191.559 30.6837 191.241 30.0057C190.923 29.3277 190.763 28.553 190.763 27.6818C190.763 26.7955 190.926 26.0133 191.252 25.3352C191.582 24.6534 192.04 24.1212 192.627 23.7386C193.218 23.3523 193.907 23.1591 194.695 23.1591C195.309 23.1591 195.862 23.2727 196.354 23.5C196.847 23.7273 197.25 24.0455 197.565 24.4545C197.879 24.8636 198.074 25.3409 198.15 25.8864H196.809C196.707 25.4886 196.479 25.1364 196.127 24.8295C195.779 24.5189 195.309 24.3636 194.718 24.3636C194.195 24.3636 193.737 24.5 193.343 24.7727C192.953 25.0417 192.648 25.4223 192.428 25.9148C192.212 26.4034 192.104 26.9773 192.104 27.6364C192.104 28.3106 192.21 28.8977 192.423 29.3977C192.638 29.8977 192.942 30.286 193.332 30.5625C193.726 30.839 194.188 30.9773 194.718 30.9773C195.067 30.9773 195.383 30.9167 195.667 30.7955C195.951 30.6742 196.192 30.5 196.388 30.2727C196.585 30.0455 196.726 29.7727 196.809 29.4545H198.15C198.074 29.9697 197.887 30.4337 197.587 30.8466C197.292 31.2557 196.9 31.5814 196.411 31.8239C195.926 32.0625 195.362 32.1818 194.718 32.1818ZM193.491 19.7727L194.673 21.3636L195.854 19.7727H197.127V19.8636L195.286 22.2273H194.059L192.218 19.8636V19.7727H193.491ZM201.451 26.75V32H200.11V23.2727H201.406V24.6364H201.519C201.724 24.1932 202.034 23.8371 202.451 23.5682C202.868 23.2955 203.406 23.1591 204.065 23.1591C204.656 23.1591 205.173 23.2803 205.616 23.5227C206.059 23.7614 206.404 24.125 206.65 24.6136C206.896 25.0985 207.019 25.7121 207.019 26.4545V32H205.678V26.5455C205.678 25.8598 205.5 25.3258 205.144 24.9432C204.788 24.5568 204.299 24.3636 203.678 24.3636C203.25 24.3636 202.868 24.4564 202.531 24.642C202.197 24.8277 201.934 25.0985 201.741 25.4545C201.548 25.8106 201.451 26.2424 201.451 26.75ZM209.469 32V23.2727H210.81V32H209.469ZM209.538 22.0909L210.924 19.4545H212.492L210.719 22.0909H209.538ZM214.516 28.8182L214.494 27.1591H214.766L218.585 23.2727H220.244L216.175 27.3864H216.062L214.516 28.8182ZM213.266 32V20.3636H214.607V32H213.266ZM218.812 32L215.403 27.6818L216.357 26.75L220.516 32H218.812Z" fill="#1E1E1E"/>
</svg>
