<svg width="241" height="42" viewBox="0 0 241 42" fill="none" xmlns="http://www.w3.org/2000/svg">
<path d="M1 21C1 9.95431 9.95431 1 21 1H220C231.046 1 240 9.95431 240 21C240 32.0457 231.046 41 220 41H21C9.9543 41 1 32.0457 1 21Z" fill="white"/>
<path d="M21 1.5H220V0.5H21V1.5ZM220 40.5H21V41.5H220V40.5ZM21 40.5C10.2304 40.5 1.5 31.7696 1.5 21H0.5C0.5 32.3218 9.67816 41.5 21 41.5V40.5ZM239.5 21C239.5 31.7696 230.77 40.5 220 40.5V41.5C231.322 41.5 240.5 32.3218 240.5 21H239.5ZM220 1.5C230.77 1.5 239.5 10.2304 239.5 21H240.5C240.5 9.67816 231.322 0.5 220 0.5V1.5ZM21 0.5C9.67816 0.5 0.5 9.67816 0.5 21H1.5C1.5 10.2304 10.2304 1.5 21 1.5V0.5Z" fill="#D9D9D9"/>
<path d="M93.9089 15.3636V27H92.4998V16.8409H92.4316L89.5907 18.7273V17.2955L92.4998 15.3636H93.9089ZM99.7228 27.0909C99.4425 27.0909 99.202 26.9905 99.0012 26.7898C98.8005 26.589 98.7001 26.3485 98.7001 26.0682C98.7001 25.7879 98.8005 25.5473 99.0012 25.3466C99.202 25.1458 99.4425 25.0455 99.7228 25.0455C100.003 25.0455 100.244 25.1458 100.444 25.3466C100.645 25.5473 100.746 25.7879 100.746 26.0682C100.746 26.2538 100.698 26.4242 100.604 26.5795C100.513 26.7348 100.389 26.8598 100.234 26.9545C100.083 27.0455 99.9122 27.0909 99.7228 27.0909ZM108.667 27V15.3636H112.599C113.508 15.3636 114.254 15.5189 114.837 15.8295C115.421 16.1364 115.853 16.5587 116.133 17.0966C116.413 17.6345 116.553 18.2462 116.553 18.9318C116.553 19.6174 116.413 20.2254 116.133 20.7557C115.853 21.286 115.423 21.7027 114.843 22.0057C114.263 22.3049 113.523 22.4545 112.621 22.4545H109.44V21.1818H112.576C113.197 21.1818 113.697 21.0909 114.076 20.9091C114.459 20.7273 114.735 20.4697 114.906 20.1364C115.08 19.7992 115.167 19.3977 115.167 18.9318C115.167 18.4659 115.08 18.0587 114.906 17.7102C114.731 17.3617 114.453 17.0928 114.07 16.9034C113.688 16.7102 113.182 16.6136 112.553 16.6136H110.076V27H108.667ZM114.144 21.7727L117.008 27H115.371L112.553 21.7727H114.144ZM122.171 27.1818C121.383 27.1818 120.692 26.9943 120.097 26.6193C119.506 26.2443 119.044 25.7197 118.711 25.0455C118.381 24.3712 118.217 23.5833 118.217 22.6818C118.217 21.7727 118.381 20.9792 118.711 20.3011C119.044 19.6231 119.506 19.0966 120.097 18.7216C120.692 18.3466 121.383 18.1591 122.171 18.1591C122.959 18.1591 123.648 18.3466 124.239 18.7216C124.834 19.0966 125.296 19.6231 125.626 20.3011C125.959 20.9792 126.126 21.7727 126.126 22.6818C126.126 23.5833 125.959 24.3712 125.626 25.0455C125.296 25.7197 124.834 26.2443 124.239 26.6193C123.648 26.9943 122.959 27.1818 122.171 27.1818ZM122.171 25.9773C122.77 25.9773 123.262 25.8239 123.648 25.517C124.035 25.2102 124.321 24.8068 124.506 24.3068C124.692 23.8068 124.785 23.2652 124.785 22.6818C124.785 22.0985 124.692 21.5549 124.506 21.0511C124.321 20.5473 124.035 20.1402 123.648 19.8295C123.262 19.5189 122.77 19.3636 122.171 19.3636C121.573 19.3636 121.08 19.5189 120.694 19.8295C120.308 20.1402 120.022 20.5473 119.836 21.0511C119.65 21.5549 119.558 22.0985 119.558 22.6818C119.558 23.2652 119.65 23.8068 119.836 24.3068C120.022 24.8068 120.308 25.2102 120.694 25.517C121.08 25.8239 121.573 25.9773 122.171 25.9773ZM131.718 27.1818C130.9 27.1818 130.195 26.9886 129.604 26.6023C129.013 26.2159 128.559 25.6837 128.241 25.0057C127.923 24.3277 127.763 23.553 127.763 22.6818C127.763 21.7955 127.926 21.0133 128.252 20.3352C128.582 19.6534 129.04 19.1212 129.627 18.7386C130.218 18.3523 130.907 18.1591 131.695 18.1591C132.309 18.1591 132.862 18.2727 133.354 18.5C133.847 18.7273 134.25 19.0455 134.565 19.4545C134.879 19.8636 135.074 20.3409 135.15 20.8864H133.809C133.707 20.4886 133.479 20.1364 133.127 19.8295C132.779 19.5189 132.309 19.3636 131.718 19.3636C131.195 19.3636 130.737 19.5 130.343 19.7727C129.953 20.0417 129.648 20.4223 129.428 20.9148C129.212 21.4034 129.104 21.9773 129.104 22.6364C129.104 23.3106 129.21 23.8977 129.423 24.3977C129.638 24.8977 129.942 25.286 130.332 25.5625C130.726 25.839 131.188 25.9773 131.718 25.9773C132.067 25.9773 132.383 25.9167 132.667 25.7955C132.951 25.6742 133.192 25.5 133.388 25.2727C133.585 25.0455 133.726 24.7727 133.809 24.4545H135.15C135.074 24.9697 134.887 25.4337 134.587 25.8466C134.292 26.2557 133.9 26.5814 133.411 26.8239C132.926 27.0625 132.362 27.1818 131.718 27.1818ZM130.491 14.7727L131.673 16.3636L132.854 14.7727H134.127V14.8636L132.286 17.2273H131.059L129.218 14.8636V14.7727H130.491ZM138.451 21.75V27H137.11V18.2727H138.406V19.6364H138.519C138.724 19.1932 139.034 18.8371 139.451 18.5682C139.868 18.2955 140.406 18.1591 141.065 18.1591C141.656 18.1591 142.173 18.2803 142.616 18.5227C143.059 18.7614 143.404 19.125 143.65 19.6136C143.896 20.0985 144.019 20.7121 144.019 21.4545V27H142.678V21.5455C142.678 20.8598 142.5 20.3258 142.144 19.9432C141.788 19.5568 141.299 19.3636 140.678 19.3636C140.25 19.3636 139.868 19.4564 139.531 19.642C139.197 19.8277 138.934 20.0985 138.741 20.4545C138.548 20.8106 138.451 21.2424 138.451 21.75ZM146.469 27V18.2727H147.81V27H146.469ZM146.538 17.0909L147.924 14.4545H149.492L147.719 17.0909H146.538ZM151.516 23.8182L151.494 22.1591H151.766L155.585 18.2727H157.244L153.175 22.3864H153.062L151.516 23.8182ZM150.266 27V15.3636H151.607V27H150.266ZM155.812 27L152.403 22.6818L153.357 21.75L157.516 27H155.812Z" fill="#1E1E1E"/>
</svg>
