<svg width="1200" height="99" viewBox="0 0 1200 99" fill="none" xmlns="http://www.w3.org/2000/svg">
<mask id="path-1-inside-1_2_138" fill="white">
<path d="M0 0H1200V99H0V0Z"/>
</mask>
<path d="M0 0H1200V99H0V0Z" fill="white"/>
<path d="M1200 98H0V100H1200V98Z" fill="#D9D9D9" mask="url(#path-1-inside-1_2_138)"/>
<path d="M101.131 32.8182H102.364V40.0966C102.364 40.7462 102.244 41.2981 102.006 41.7521C101.767 42.2062 101.431 42.5509 100.996 42.7862C100.562 43.0215 100.05 43.1392 99.4602 43.1392C98.9034 43.1392 98.4079 43.0381 97.9737 42.8359C97.5395 42.6304 97.1982 42.3388 96.9496 41.9609C96.701 41.5831 96.5767 41.134 96.5767 40.6136H97.7898C97.7898 40.902 97.861 41.1539 98.0036 41.3693C98.1494 41.5814 98.3482 41.7472 98.6001 41.8665C98.852 41.9858 99.1387 42.0455 99.4602 42.0455C99.8149 42.0455 100.116 41.9709 100.365 41.8217C100.614 41.6726 100.803 41.4538 100.932 41.1655C101.064 40.8738 101.131 40.5175 101.131 40.0966V32.8182ZM106.923 43.179C106.439 43.179 106 43.0878 105.605 42.9055C105.211 42.7199 104.897 42.4531 104.665 42.1051C104.433 41.7538 104.317 41.3295 104.317 40.8324C104.317 40.3949 104.404 40.0402 104.576 39.7685C104.748 39.4934 104.979 39.2779 105.267 39.1222C105.555 38.9664 105.874 38.8504 106.222 38.7741C106.573 38.6946 106.926 38.6316 107.281 38.5852C107.745 38.5256 108.121 38.4808 108.409 38.451C108.701 38.4179 108.913 38.3632 109.045 38.2869C109.181 38.2107 109.249 38.0781 109.249 37.8892V37.8494C109.249 37.3589 109.115 36.9777 108.847 36.706C108.581 36.4342 108.179 36.2983 107.638 36.2983C107.078 36.2983 106.639 36.4209 106.321 36.6662C106.003 36.9115 105.779 37.1733 105.65 37.4517L104.536 37.054C104.735 36.59 105 36.2287 105.332 35.9702C105.666 35.7083 106.031 35.526 106.425 35.4233C106.823 35.3172 107.214 35.2642 107.599 35.2642C107.844 35.2642 108.126 35.294 108.444 35.3537C108.765 35.41 109.075 35.5277 109.374 35.7067C109.675 35.8857 109.925 36.1558 110.124 36.517C110.323 36.8783 110.423 37.3622 110.423 37.9688V43H109.249V41.9659H109.19C109.11 42.1316 108.978 42.3089 108.792 42.4979C108.606 42.6868 108.359 42.8475 108.051 42.9801C107.743 43.1127 107.367 43.179 106.923 43.179ZM107.102 42.125C107.566 42.125 107.957 42.0339 108.275 41.8516C108.596 41.6693 108.838 41.4339 109.001 41.1456C109.166 40.8572 109.249 40.554 109.249 40.2358V39.1619C109.2 39.2216 109.09 39.2763 108.921 39.326C108.755 39.3724 108.563 39.4138 108.344 39.4503C108.129 39.4834 107.919 39.5133 107.713 39.5398C107.511 39.563 107.347 39.5829 107.221 39.5994C106.916 39.6392 106.631 39.7038 106.366 39.7933C106.104 39.8795 105.892 40.0104 105.729 40.1861C105.57 40.3584 105.491 40.5937 105.491 40.892C105.491 41.2997 105.642 41.608 105.943 41.8168C106.248 42.0223 106.634 42.125 107.102 42.125ZM113.737 38.4062V43H112.564V35.3636H113.698V36.5568H113.797C113.976 36.169 114.248 35.8575 114.612 35.6222C114.977 35.3835 115.448 35.2642 116.024 35.2642C116.541 35.2642 116.994 35.3703 117.382 35.5824C117.769 35.7912 118.071 36.1094 118.286 36.5369C118.502 36.9612 118.61 37.4981 118.61 38.1477V43H117.436V38.2273C117.436 37.6274 117.28 37.16 116.969 36.8253C116.657 36.4872 116.23 36.3182 115.686 36.3182C115.312 36.3182 114.977 36.3994 114.682 36.5618C114.39 36.7242 114.16 36.9612 113.991 37.2727C113.822 37.5843 113.737 37.9621 113.737 38.4062ZM124.85 43V32.8182H126.083V37.8693H126.202L130.776 32.8182H132.387L128.112 37.4119L132.387 43H130.896L127.356 38.267L126.083 39.6989V43H124.85ZM136.366 43.1591C135.676 43.1591 135.071 42.995 134.551 42.6669C134.034 42.3388 133.63 41.8797 133.338 41.2898C133.05 40.6998 132.905 40.0104 132.905 39.2216C132.905 38.4261 133.05 37.7318 133.338 37.1385C133.63 36.5452 134.034 36.0845 134.551 35.7564C135.071 35.4283 135.676 35.2642 136.366 35.2642C137.055 35.2642 137.658 35.4283 138.175 35.7564C138.696 36.0845 139.1 36.5452 139.388 37.1385C139.68 37.7318 139.826 38.4261 139.826 39.2216C139.826 40.0104 139.68 40.6998 139.388 41.2898C139.1 41.8797 138.696 42.3388 138.175 42.6669C137.658 42.995 137.055 43.1591 136.366 43.1591ZM136.366 42.1051C136.889 42.1051 137.32 41.9709 137.658 41.7024C137.996 41.4339 138.247 41.081 138.409 40.6435C138.571 40.206 138.653 39.732 138.653 39.2216C138.653 38.7112 138.571 38.2356 138.409 37.7947C138.247 37.3539 137.996 36.9976 137.658 36.7259C137.32 36.4541 136.889 36.3182 136.366 36.3182C135.842 36.3182 135.411 36.4541 135.073 36.7259C134.735 36.9976 134.485 37.3539 134.322 37.7947C134.16 38.2356 134.079 38.7112 134.079 39.2216C134.079 39.732 134.16 40.206 134.322 40.6435C134.485 41.081 134.735 41.4339 135.073 41.7024C135.411 41.9709 135.842 42.1051 136.366 42.1051ZM142.79 38.4062V43H141.617V35.3636H142.75V36.5568H142.85C143.029 36.169 143.301 35.8575 143.665 35.6222C144.03 35.3835 144.5 35.2642 145.077 35.2642C145.594 35.2642 146.047 35.3703 146.434 35.5824C146.822 35.7912 147.124 36.1094 147.339 36.5369C147.555 36.9612 147.662 37.4981 147.662 38.1477V43H146.489V38.2273C146.489 37.6274 146.333 37.16 146.022 36.8253C145.71 36.4872 145.283 36.3182 144.739 36.3182C144.364 36.3182 144.03 36.3994 143.735 36.5618C143.443 36.7242 143.213 36.9612 143.044 37.2727C142.875 37.5843 142.79 37.9621 142.79 38.4062ZM149.806 43V35.3636H150.94V36.517H151.019C151.159 36.1392 151.41 35.8326 151.775 35.5973C152.14 35.362 152.551 35.2443 153.008 35.2443C153.094 35.2443 153.202 35.246 153.331 35.2493C153.46 35.2526 153.558 35.2576 153.624 35.2642V36.4574C153.585 36.4474 153.494 36.4325 153.351 36.4126C153.212 36.3894 153.064 36.3778 152.909 36.3778C152.537 36.3778 152.206 36.4557 151.914 36.6115C151.626 36.764 151.397 36.9761 151.228 37.2479C151.062 37.5163 150.98 37.8229 150.98 38.1676V43H149.806ZM157.262 43.179C156.779 43.179 156.339 43.0878 155.945 42.9055C155.551 42.7199 155.237 42.4531 155.005 42.1051C154.773 41.7538 154.657 41.3295 154.657 40.8324C154.657 40.3949 154.743 40.0402 154.916 39.7685C155.088 39.4934 155.319 39.2779 155.607 39.1222C155.895 38.9664 156.213 38.8504 156.561 38.7741C156.913 38.6946 157.266 38.6316 157.62 38.5852C158.084 38.5256 158.461 38.4808 158.749 38.451C159.041 38.4179 159.253 38.3632 159.385 38.2869C159.521 38.2107 159.589 38.0781 159.589 37.8892V37.8494C159.589 37.3589 159.455 36.9777 159.186 36.706C158.921 36.4342 158.519 36.2983 157.978 36.2983C157.418 36.2983 156.979 36.4209 156.661 36.6662C156.343 36.9115 156.119 37.1733 155.99 37.4517L154.876 37.054C155.075 36.59 155.34 36.2287 155.672 35.9702C156.006 35.7083 156.371 35.526 156.765 35.4233C157.163 35.3172 157.554 35.2642 157.939 35.2642C158.184 35.2642 158.466 35.294 158.784 35.3537C159.105 35.41 159.415 35.5277 159.713 35.7067C160.015 35.8857 160.265 36.1558 160.464 36.517C160.663 36.8783 160.762 37.3622 160.762 37.9688V43H159.589V41.9659H159.529C159.45 42.1316 159.317 42.3089 159.132 42.4979C158.946 42.6868 158.699 42.8475 158.391 42.9801C158.083 43.1127 157.707 43.179 157.262 43.179ZM157.441 42.125C157.905 42.125 158.297 42.0339 158.615 41.8516C158.936 41.6693 159.178 41.4339 159.341 41.1456C159.506 40.8572 159.589 40.554 159.589 40.2358V39.1619C159.539 39.2216 159.43 39.2763 159.261 39.326C159.095 39.3724 158.903 39.4138 158.684 39.4503C158.469 39.4834 158.258 39.5133 158.053 39.5398C157.851 39.563 157.687 39.5829 157.561 39.5994C157.256 39.6392 156.971 39.7038 156.706 39.7933C156.444 39.8795 156.232 40.0104 156.069 40.1861C155.91 40.3584 155.831 40.5937 155.831 40.892C155.831 41.2997 155.981 41.608 156.283 41.8168C156.588 42.0223 156.974 42.125 157.441 42.125ZM157.481 34.3295L158.694 32.0227H160.066L158.515 34.3295H157.481ZM165.787 43.1591C165.151 43.1591 164.589 42.9983 164.102 42.6768C163.615 42.352 163.234 41.8946 162.959 41.3047C162.684 40.7114 162.546 40.0104 162.546 39.2017C162.546 38.3996 162.684 37.7036 162.959 37.1136C163.234 36.5237 163.617 36.0679 164.107 35.7464C164.598 35.425 165.164 35.2642 165.807 35.2642C166.305 35.2642 166.697 35.3471 166.986 35.5128C167.277 35.6752 167.499 35.8608 167.652 36.0696C167.808 36.2751 167.929 36.4441 168.015 36.5767H168.114V32.8182H169.287V43H168.154V41.8267H168.015C167.929 41.9659 167.806 42.1416 167.647 42.3537C167.488 42.5625 167.261 42.7498 166.966 42.9155C166.671 43.0779 166.278 43.1591 165.787 43.1591ZM165.947 42.1051C166.417 42.1051 166.815 41.9825 167.14 41.7372C167.465 41.4886 167.711 41.1456 167.881 40.7081C168.05 40.2673 168.134 39.7585 168.134 39.1818C168.134 38.6117 168.051 38.1129 167.885 37.6854C167.72 37.2545 167.474 36.9197 167.15 36.6811C166.825 36.4392 166.424 36.3182 165.947 36.3182C165.449 36.3182 165.035 36.4458 164.704 36.701C164.376 36.9529 164.129 37.2959 163.963 37.7301C163.8 38.161 163.719 38.6449 163.719 39.1818C163.719 39.7254 163.802 40.2192 163.968 40.6634C164.137 41.1042 164.385 41.4555 164.714 41.7173C165.045 41.9759 165.456 42.1051 165.947 42.1051Z" fill="#757575"/>
<path d="M98.7045 53.3636L101.733 62.5227H101.852L104.875 53.3636H107.193L103.091 65H100.489L96.392 53.3636H98.7045ZM109.913 68.2727C109.633 68.2727 109.374 68.25 109.135 68.2045C108.9 68.1629 108.713 68.1136 108.572 68.0568L109.05 66.4545C109.349 66.5417 109.616 66.5833 109.851 66.5795C110.086 66.5758 110.292 66.5019 110.47 66.358C110.652 66.2178 110.805 65.983 110.93 65.6534L111.107 65.1818L107.942 56.2727H110.124L112.135 62.8636H112.226L114.243 56.2727H116.43L112.936 66.0568C112.773 66.5189 112.557 66.9148 112.288 67.2443C112.019 67.5777 111.69 67.8314 111.3 68.0057C110.913 68.1837 110.451 68.2727 109.913 68.2727ZM111.391 55.125L112.663 52.5284H114.675L112.93 55.125H111.391ZM123.416 61.3295V56.2727H125.473V65H123.479V63.4489H123.388C123.191 63.9375 122.867 64.3371 122.416 64.6477C121.969 64.9583 121.418 65.1136 120.763 65.1136C120.191 65.1136 119.685 64.9867 119.246 64.733C118.81 64.4754 118.469 64.1023 118.223 63.6136C117.977 63.1212 117.854 62.5265 117.854 61.8295V56.2727H119.911V61.5114C119.911 62.0644 120.062 62.5038 120.365 62.8295C120.668 63.1553 121.066 63.3182 121.558 63.3182C121.861 63.3182 122.155 63.2443 122.439 63.0966C122.723 62.9489 122.956 62.7292 123.138 62.4375C123.323 62.142 123.416 61.7727 123.416 61.3295ZM129.463 62.2614L129.457 59.7784H129.787L132.923 56.2727H135.327L131.469 60.5682H131.043L129.463 62.2614ZM127.588 65V53.3636H129.645V65H127.588ZM133.065 65L130.224 61.0284L131.611 59.5795L135.526 65H133.065ZM140.145 65.1705C139.293 65.1705 138.554 64.983 137.929 64.608C137.304 64.233 136.819 63.7083 136.474 63.0341C136.134 62.3598 135.963 61.572 135.963 60.6705C135.963 59.7689 136.134 58.9792 136.474 58.3011C136.819 57.6231 137.304 57.0966 137.929 56.7216C138.554 56.3466 139.293 56.1591 140.145 56.1591C140.997 56.1591 141.736 56.3466 142.361 56.7216C142.986 57.0966 143.469 57.6231 143.81 58.3011C144.154 58.9792 144.327 59.7689 144.327 60.6705C144.327 61.572 144.154 62.3598 143.81 63.0341C143.469 63.7083 142.986 64.233 142.361 64.608C141.736 64.983 140.997 65.1705 140.145 65.1705ZM140.156 63.5227C140.618 63.5227 141.005 63.3958 141.315 63.142C141.626 62.8845 141.857 62.5398 142.009 62.108C142.164 61.6761 142.241 61.1951 142.241 60.6648C142.241 60.1307 142.164 59.6477 142.009 59.2159C141.857 58.7803 141.626 58.4337 141.315 58.1761C141.005 57.9186 140.618 57.7898 140.156 57.7898C139.683 57.7898 139.289 57.9186 138.974 58.1761C138.664 58.4337 138.431 58.7803 138.276 59.2159C138.124 59.6477 138.048 60.1307 138.048 60.6648C138.048 61.1951 138.124 61.6761 138.276 62.108C138.431 62.5398 138.664 62.8845 138.974 63.142C139.289 63.3958 139.683 63.5227 140.156 63.5227ZM153.571 56.2727L150.463 65H148.19L145.082 56.2727H147.276L149.281 62.7557H149.372L151.384 56.2727H153.571ZM158.561 65.1705C157.686 65.1705 156.93 64.9886 156.294 64.625C155.661 64.2576 155.175 63.7386 154.834 63.0682C154.493 62.3939 154.322 61.6004 154.322 60.6875C154.322 59.7898 154.493 59.0019 154.834 58.3239C155.179 57.642 155.66 57.1117 156.277 56.733C156.894 56.3504 157.62 56.1591 158.453 56.1591C158.991 56.1591 159.499 56.2462 159.976 56.4205C160.457 56.5909 160.881 56.8561 161.249 57.2159C161.62 57.5758 161.911 58.0341 162.124 58.5909C162.336 59.1439 162.442 59.803 162.442 60.5682V61.1989H155.288V59.8125H160.47C160.466 59.4186 160.381 59.0682 160.214 58.7614C160.048 58.4508 159.815 58.2064 159.516 58.0284C159.22 57.8504 158.875 57.7614 158.482 57.7614C158.061 57.7614 157.692 57.8636 157.374 58.0682C157.055 58.2689 156.807 58.5341 156.629 58.8636C156.455 59.1894 156.366 59.5473 156.362 59.9375V61.1477C156.362 61.6553 156.455 62.0909 156.641 62.4545C156.826 62.8144 157.086 63.0909 157.419 63.2841C157.752 63.4735 158.143 63.5682 158.589 63.5682C158.889 63.5682 159.16 63.5265 159.402 63.4432C159.644 63.3561 159.855 63.2292 160.033 63.0625C160.211 62.8958 160.345 62.6894 160.436 62.4432L162.357 62.6591C162.235 63.1667 162.004 63.6098 161.663 63.9886C161.326 64.3636 160.894 64.6553 160.368 64.8636C159.841 65.0682 159.239 65.1705 158.561 65.1705ZM157.607 55.125L158.879 52.5284H160.891L159.146 55.125H157.607ZM168.151 65V56.2727H170.116V57.7557H170.219C170.401 57.2557 170.702 56.8655 171.122 56.5852C171.543 56.3011 172.045 56.1591 172.628 56.1591C173.219 56.1591 173.717 56.303 174.122 56.5909C174.531 56.875 174.819 57.2633 174.986 57.7557H175.077C175.27 57.2708 175.596 56.8845 176.054 56.5966C176.516 56.3049 177.063 56.1591 177.696 56.1591C178.499 56.1591 179.154 56.4129 179.662 56.9205C180.17 57.428 180.423 58.1686 180.423 59.142V65H178.361V59.4602C178.361 58.9186 178.217 58.5227 177.929 58.2727C177.641 58.0189 177.289 57.892 176.872 57.892C176.376 57.892 175.988 58.0473 175.707 58.358C175.431 58.6648 175.293 59.0644 175.293 59.5568V65H173.276V59.375C173.276 58.9242 173.139 58.5644 172.866 58.2955C172.598 58.0265 172.245 57.892 171.81 57.892C171.514 57.892 171.245 57.9678 171.003 58.1193C170.76 58.267 170.567 58.4773 170.423 58.75C170.279 59.0189 170.207 59.3333 170.207 59.6932V65H168.151ZM185.021 65.1761C184.468 65.1761 183.97 65.0777 183.527 64.8807C183.088 64.6799 182.739 64.3845 182.482 63.9943C182.228 63.6042 182.101 63.1231 182.101 62.5511C182.101 62.0587 182.192 61.6515 182.374 61.3295C182.555 61.0076 182.804 60.75 183.118 60.5568C183.432 60.3636 183.786 60.2178 184.18 60.1193C184.578 60.017 184.989 59.9432 185.413 59.8977C185.925 59.8447 186.339 59.7973 186.658 59.7557C186.976 59.7102 187.207 59.642 187.351 59.5511C187.499 59.4564 187.572 59.3106 187.572 59.1136V59.0795C187.572 58.6515 187.446 58.3201 187.192 58.0852C186.938 57.8504 186.572 57.733 186.095 57.733C185.591 57.733 185.192 57.8428 184.896 58.0625C184.605 58.2822 184.408 58.5417 184.305 58.8409L182.385 58.5682C182.536 58.0379 182.786 57.5947 183.135 57.2386C183.483 56.8788 183.91 56.6098 184.413 56.4318C184.917 56.25 185.474 56.1591 186.084 56.1591C186.504 56.1591 186.923 56.2083 187.339 56.3068C187.756 56.4053 188.137 56.5682 188.482 56.7955C188.826 57.0189 189.103 57.3239 189.311 57.7102C189.523 58.0966 189.629 58.5795 189.629 59.1591V65H187.652V63.8011H187.584C187.459 64.0436 187.283 64.2708 187.055 64.483C186.832 64.6913 186.55 64.8598 186.209 64.9886C185.872 65.1136 185.476 65.1761 185.021 65.1761ZM185.555 63.6648C185.968 63.6648 186.326 63.5833 186.629 63.4205C186.932 63.2538 187.165 63.0341 187.328 62.7614C187.495 62.4886 187.578 62.1913 187.578 61.8693V60.8409C187.514 60.8939 187.404 60.9432 187.249 60.9886C187.097 61.0341 186.927 61.0739 186.737 61.108C186.548 61.142 186.36 61.1723 186.175 61.1989C185.989 61.2254 185.828 61.2481 185.692 61.267C185.385 61.3087 185.11 61.3769 184.868 61.4716C184.625 61.5663 184.434 61.6989 184.294 61.8693C184.154 62.036 184.084 62.2519 184.084 62.517C184.084 62.8958 184.222 63.1818 184.499 63.375C184.775 63.5682 185.127 63.6648 185.555 63.6648ZM196.055 56.2727V57.8636H191.038V56.2727H196.055ZM192.277 54.1818H194.334V62.375C194.334 62.6515 194.375 62.8636 194.459 63.0114C194.546 63.1553 194.66 63.2538 194.8 63.3068C194.94 63.3598 195.095 63.3864 195.266 63.3864C195.394 63.3864 195.512 63.3769 195.618 63.358C195.728 63.339 195.811 63.322 195.868 63.3068L196.214 64.9148C196.105 64.9527 195.947 64.9943 195.743 65.0398C195.542 65.0852 195.296 65.1117 195.004 65.1193C194.489 65.1345 194.025 65.0568 193.612 64.8864C193.199 64.7121 192.872 64.4432 192.629 64.0795C192.391 63.7159 192.273 63.2614 192.277 62.7159V54.1818ZM201.545 65.1705C200.67 65.1705 199.915 64.9886 199.278 64.625C198.646 64.2576 198.159 63.7386 197.818 63.0682C197.477 62.3939 197.307 61.6004 197.307 60.6875C197.307 59.7898 197.477 59.0019 197.818 58.3239C198.163 57.642 198.644 57.1117 199.261 56.733C199.879 56.3504 200.604 56.1591 201.438 56.1591C201.975 56.1591 202.483 56.2462 202.96 56.4205C203.441 56.5909 203.866 56.8561 204.233 57.2159C204.604 57.5758 204.896 58.0341 205.108 58.5909C205.32 59.1439 205.426 59.803 205.426 60.5682V61.1989H198.273V59.8125H203.455C203.451 59.4186 203.366 59.0682 203.199 58.7614C203.032 58.4508 202.799 58.2064 202.5 58.0284C202.205 57.8504 201.86 57.7614 201.466 57.7614C201.045 57.7614 200.676 57.8636 200.358 58.0682C200.04 58.2689 199.792 58.5341 199.614 58.8636C199.439 59.1894 199.35 59.5473 199.347 59.9375V61.1477C199.347 61.6553 199.439 62.0909 199.625 62.4545C199.811 62.8144 200.07 63.0909 200.403 63.2841C200.737 63.4735 201.127 63.5682 201.574 63.5682C201.873 63.5682 202.144 63.5265 202.386 63.4432C202.629 63.3561 202.839 63.2292 203.017 63.0625C203.195 62.8958 203.33 62.6894 203.42 62.4432L205.341 62.6591C205.22 63.1667 204.989 63.6098 204.648 63.9886C204.311 64.3636 203.879 64.6553 203.352 64.8636C202.826 65.0682 202.223 65.1705 201.545 65.1705ZM207.166 65V56.2727H209.161V57.7273H209.251C209.411 57.2235 209.683 56.8352 210.07 56.5625C210.46 56.286 210.905 56.1477 211.405 56.1477C211.518 56.1477 211.645 56.1534 211.786 56.1648C211.929 56.1723 212.049 56.1856 212.143 56.2045V58.0966C212.056 58.0663 211.918 58.0398 211.729 58.017C211.543 57.9905 211.363 57.9773 211.189 57.9773C210.814 57.9773 210.477 58.0587 210.178 58.2216C209.882 58.3807 209.649 58.6023 209.479 58.8864C209.308 59.1705 209.223 59.4981 209.223 59.8693V65H207.166ZM213.51 65V56.2727H215.567V65H213.51ZM214.544 55.0341C214.218 55.0341 213.938 54.9261 213.703 54.7102C213.468 54.4905 213.351 54.2273 213.351 53.9205C213.351 53.6098 213.468 53.3466 213.703 53.1307C213.938 52.911 214.218 52.8011 214.544 52.8011C214.874 52.8011 215.154 52.911 215.385 53.1307C215.62 53.3466 215.737 53.6098 215.737 53.9205C215.737 54.2273 215.62 54.4905 215.385 54.7102C215.154 54.9261 214.874 55.0341 214.544 55.0341ZM220.193 65.1761C219.64 65.1761 219.142 65.0777 218.699 64.8807C218.259 64.6799 217.911 64.3845 217.653 63.9943C217.4 63.6042 217.273 63.1231 217.273 62.5511C217.273 62.0587 217.364 61.6515 217.545 61.3295C217.727 61.0076 217.975 60.75 218.29 60.5568C218.604 60.3636 218.958 60.2178 219.352 60.1193C219.75 60.017 220.161 59.9432 220.585 59.8977C221.097 59.8447 221.511 59.7973 221.83 59.7557C222.148 59.7102 222.379 59.642 222.523 59.5511C222.67 59.4564 222.744 59.3106 222.744 59.1136V59.0795C222.744 58.6515 222.617 58.3201 222.364 58.0852C222.11 57.8504 221.744 57.733 221.267 57.733C220.763 57.733 220.364 57.8428 220.068 58.0625C219.777 58.2822 219.58 58.5417 219.477 58.8409L217.557 58.5682C217.708 58.0379 217.958 57.5947 218.307 57.2386C218.655 56.8788 219.081 56.6098 219.585 56.4318C220.089 56.25 220.646 56.1591 221.256 56.1591C221.676 56.1591 222.095 56.2083 222.511 56.3068C222.928 56.4053 223.309 56.5682 223.653 56.7955C223.998 57.0189 224.275 57.3239 224.483 57.7102C224.695 58.0966 224.801 58.5795 224.801 59.1591V65H222.824V63.8011H222.756C222.631 64.0436 222.455 64.2708 222.227 64.483C222.004 64.6913 221.722 64.8598 221.381 64.9886C221.044 65.1136 220.648 65.1761 220.193 65.1761ZM220.727 63.6648C221.14 63.6648 221.498 63.5833 221.801 63.4205C222.104 63.2538 222.337 63.0341 222.5 62.7614C222.667 62.4886 222.75 62.1913 222.75 61.8693V60.8409C222.686 60.8939 222.576 60.9432 222.42 60.9886C222.269 61.0341 222.098 61.0739 221.909 61.108C221.72 61.142 221.532 61.1723 221.347 61.1989C221.161 61.2254 221 61.2481 220.864 61.267C220.557 61.3087 220.282 61.3769 220.04 61.4716C219.797 61.5663 219.606 61.6989 219.466 61.8693C219.326 62.036 219.256 62.2519 219.256 62.517C219.256 62.8958 219.394 63.1818 219.67 63.375C219.947 63.5682 220.299 63.6648 220.727 63.6648ZM220.557 55.125L221.83 52.5284H223.841L222.097 55.125H220.557ZM228.926 53.3636V65H226.869V53.3636H228.926ZM232.32 68.2727C232.039 68.2727 231.78 68.25 231.541 68.2045C231.306 68.1629 231.119 68.1136 230.979 68.0568L231.456 66.4545C231.755 66.5417 232.022 66.5833 232.257 66.5795C232.492 66.5758 232.698 66.5019 232.876 66.358C233.058 66.2178 233.212 65.983 233.337 65.6534L233.513 65.1818L230.348 56.2727H232.53L234.541 62.8636H234.632L236.649 56.2727H238.837L235.342 66.0568C235.179 66.5189 234.964 66.9148 234.695 67.2443C234.426 67.5777 234.096 67.8314 233.706 68.0057C233.32 68.1837 232.857 68.2727 232.32 68.2727Z" fill="#1E1E1E"/>
</svg>
