<svg width="304" height="48" viewBox="0 0 304 48" fill="none" xmlns="http://www.w3.org/2000/svg">
<path d="M44 38C44 39.0609 43.5786 40.0783 42.8284 40.8284C42.0783 41.5786 41.0609 42 40 42H8C6.93913 42 5.92172 41.5786 5.17157 40.8284C4.42143 40.0783 4 39.0609 4 38V10C4 8.93913 4.42143 7.92172 5.17157 7.17157C5.92172 6.42143 6.93913 6 8 6H18L22 12H40C41.0609 12 42.0783 12.4214 42.8284 13.1716C43.5786 13.9217 44 14.9391 44 16V38Z" stroke="#1E1E1E" stroke-width="4" stroke-linecap="round" stroke-linejoin="round"/>
<path d="M64 26C64 14.9543 72.9543 6 84 6H283C294.046 6 303 14.9543 303 26V26C303 37.0457 294.046 46 283 46H84C72.9543 46 64 37.0457 64 26V26Z" fill="white"/>
<path d="M84 6.5H283V5.5H84V6.5ZM283 45.5H84V46.5H283V45.5ZM84 45.5C73.2304 45.5 64.5 36.7696 64.5 26H63.5C63.5 37.3218 72.6782 46.5 84 46.5V45.5ZM302.5 26C302.5 36.7696 293.77 45.5 283 45.5V46.5C294.322 46.5 303.5 37.3218 303.5 26H302.5ZM283 6.5C293.77 6.5 302.5 15.2304 302.5 26H303.5C303.5 14.6782 294.322 5.5 283 5.5V6.5ZM84 5.5C72.6782 5.5 63.5 14.6782 63.5 26H64.5C64.5 15.2304 73.2304 6.5 84 6.5V5.5Z" fill="#D9D9D9"/>
<path d="M158.862 32V20.3636H160.271V26.1364H160.408L165.635 20.3636H167.476L162.589 25.6136L167.476 32H165.771L161.726 26.5909L160.271 28.2273V32H158.862ZM175.614 23.2727L172.386 32H171.023L167.795 23.2727H169.25L171.659 30.2273H171.75L174.159 23.2727H175.614ZM180.73 32.1818C179.889 32.1818 179.164 31.9962 178.554 31.625C177.948 31.25 177.48 30.7273 177.151 30.0568C176.825 29.3826 176.662 28.5985 176.662 27.7045C176.662 26.8106 176.825 26.0227 177.151 25.3409C177.48 24.6553 177.938 24.1212 178.526 23.7386C179.116 23.3523 179.806 23.1591 180.594 23.1591C181.048 23.1591 181.497 23.2348 181.94 23.3864C182.384 23.5379 182.787 23.7841 183.151 24.125C183.514 24.4621 183.804 24.9091 184.02 25.4659C184.236 26.0227 184.344 26.7083 184.344 27.5227V28.0909H177.616V26.9318H182.98C182.98 26.4394 182.882 26 182.685 25.6136C182.491 25.2273 182.215 24.9223 181.855 24.6989C181.499 24.4754 181.079 24.3636 180.594 24.3636C180.06 24.3636 179.598 24.4962 179.207 24.7614C178.821 25.0227 178.524 25.3636 178.315 25.7841C178.107 26.2045 178.003 26.6553 178.003 27.1364V27.9091C178.003 28.5682 178.116 29.1269 178.344 29.5852C178.575 30.0398 178.895 30.3864 179.304 30.625C179.713 30.8598 180.188 30.9773 180.73 30.9773C181.082 30.9773 181.401 30.928 181.685 30.8295C181.973 30.7273 182.221 30.5758 182.429 30.375C182.637 30.1705 182.798 29.9167 182.912 29.6136L184.207 29.9773C184.071 30.4167 183.842 30.803 183.52 31.1364C183.198 31.4659 182.8 31.7235 182.327 31.9091C181.853 32.0909 181.321 32.1818 180.73 32.1818ZM179.344 19.7727L180.526 21.3636L181.707 19.7727H182.98V19.8636L181.139 22.2273H179.912L178.071 19.8636V19.7727H179.344ZM190.179 23.2727V24.4091H185.656V23.2727H190.179ZM186.974 21.1818H188.315V29.5C188.315 29.8788 188.37 30.1629 188.48 30.3523C188.594 30.5379 188.738 30.6629 188.912 30.7273C189.09 30.7879 189.277 30.8182 189.474 30.8182C189.622 30.8182 189.743 30.8106 189.838 30.7955C189.933 30.7765 190.009 30.7614 190.065 30.75L190.338 31.9545C190.247 31.9886 190.12 32.0227 189.957 32.0568C189.795 32.0947 189.588 32.1136 189.338 32.1136C188.959 32.1136 188.588 32.0322 188.224 31.8693C187.865 31.7064 187.565 31.4583 187.327 31.125C187.092 30.7917 186.974 30.3712 186.974 29.8636V21.1818ZM195.761 32.1818C194.92 32.1818 194.195 31.9962 193.585 31.625C192.979 31.25 192.511 30.7273 192.182 30.0568C191.856 29.3826 191.693 28.5985 191.693 27.7045C191.693 26.8106 191.856 26.0227 192.182 25.3409C192.511 24.6553 192.97 24.1212 193.557 23.7386C194.148 23.3523 194.837 23.1591 195.625 23.1591C196.08 23.1591 196.528 23.2348 196.972 23.3864C197.415 23.5379 197.818 23.7841 198.182 24.125C198.545 24.4621 198.835 24.9091 199.051 25.4659C199.267 26.0227 199.375 26.7083 199.375 27.5227V28.0909H192.648V26.9318H198.011C198.011 26.4394 197.913 26 197.716 25.6136C197.523 25.2273 197.246 24.9223 196.886 24.6989C196.53 24.4754 196.11 24.3636 195.625 24.3636C195.091 24.3636 194.629 24.4962 194.239 24.7614C193.852 25.0227 193.555 25.3636 193.347 25.7841C193.138 26.2045 193.034 26.6553 193.034 27.1364V27.9091C193.034 28.5682 193.148 29.1269 193.375 29.5852C193.606 30.0398 193.926 30.3864 194.335 30.625C194.744 30.8598 195.22 30.9773 195.761 30.9773C196.114 30.9773 196.432 30.928 196.716 30.8295C197.004 30.7273 197.252 30.5758 197.46 30.375C197.669 30.1705 197.83 29.9167 197.943 29.6136L199.239 29.9773C199.102 30.4167 198.873 30.803 198.551 31.1364C198.229 31.4659 197.831 31.7235 197.358 31.9091C196.884 32.0909 196.352 32.1818 195.761 32.1818ZM202.756 26.75V32H201.415V23.2727H202.71V24.6364H202.824C203.028 24.1932 203.339 23.8371 203.756 23.5682C204.172 23.2955 204.71 23.1591 205.369 23.1591C205.96 23.1591 206.477 23.2803 206.92 23.5227C207.364 23.7614 207.708 24.125 207.955 24.6136C208.201 25.0985 208.324 25.7121 208.324 26.4545V32H206.983V26.5455C206.983 25.8598 206.805 25.3258 206.449 24.9432C206.093 24.5568 205.604 24.3636 204.983 24.3636C204.555 24.3636 204.172 24.4564 203.835 24.642C203.502 24.8277 203.239 25.0985 203.045 25.4545C202.852 25.8106 202.756 26.2424 202.756 26.75Z" fill="#1E1E1E"/>
</svg>
