<svg width="304" height="48" viewBox="0 0 304 48" fill="none" xmlns="http://www.w3.org/2000/svg">
<path d="M44 38C44 39.0609 43.5786 40.0783 42.8284 40.8284C42.0783 41.5786 41.0609 42 40 42H8C6.93913 42 5.92172 41.5786 5.17157 40.8284C4.42143 40.0783 4 39.0609 4 38V10C4 8.93913 4.42143 7.92172 5.17157 7.17157C5.92172 6.42143 6.93913 6 8 6H18L22 12H40C41.0609 12 42.0783 12.4214 42.8284 13.1716C43.5786 13.9217 44 14.9391 44 16V38Z" stroke="#1E1E1E" stroke-width="4" stroke-linecap="round" stroke-linejoin="round"/>
<path d="M64 26C64 14.9543 72.9543 6 84 6H283C294.046 6 303 14.9543 303 26V26C303 37.0457 294.046 46 283 46H84C72.9543 46 64 37.0457 64 26V26Z" fill="white"/>
<path d="M84 6.5H283V5.5H84V6.5ZM283 45.5H84V46.5H283V45.5ZM84 45.5C73.2304 45.5 64.5 36.7696 64.5 26H63.5C63.5 37.3218 72.6782 46.5 84 46.5V45.5ZM302.5 26C302.5 36.7696 293.77 45.5 283 45.5V46.5C294.322 46.5 303.5 37.3218 303.5 26H302.5ZM283 6.5C293.77 6.5 302.5 15.2304 302.5 26H303.5C303.5 14.6782 294.322 5.5 283 5.5V6.5ZM84 5.5C72.6782 5.5 63.5 14.6782 63.5 26H64.5C64.5 15.2304 73.2304 6.5 84 6.5V5.5Z" fill="#D9D9D9"/>
<path d="M161.448 32V20.3636H162.857V30.75H168.266V32H161.448ZM173.925 32.1818C173.085 32.1818 172.359 31.9962 171.749 31.625C171.143 31.25 170.675 30.7273 170.346 30.0568C170.02 29.3826 169.857 28.5985 169.857 27.7045C169.857 26.8106 170.02 26.0227 170.346 25.3409C170.675 24.6553 171.134 24.1212 171.721 23.7386C172.312 23.3523 173.001 23.1591 173.789 23.1591C174.244 23.1591 174.692 23.2348 175.136 23.3864C175.579 23.5379 175.982 23.7841 176.346 24.125C176.71 24.4621 176.999 24.9091 177.215 25.4659C177.431 26.0227 177.539 26.7083 177.539 27.5227V28.0909H170.812V26.9318H176.175C176.175 26.4394 176.077 26 175.88 25.6136C175.687 25.2273 175.41 24.9223 175.05 24.6989C174.694 24.4754 174.274 24.3636 173.789 24.3636C173.255 24.3636 172.793 24.4962 172.403 24.7614C172.016 25.0227 171.719 25.3636 171.511 25.7841C171.302 26.2045 171.198 26.6553 171.198 27.1364V27.9091C171.198 28.5682 171.312 29.1269 171.539 29.5852C171.77 30.0398 172.09 30.3864 172.499 30.625C172.908 30.8598 173.384 30.9773 173.925 30.9773C174.278 30.9773 174.596 30.928 174.88 30.8295C175.168 30.7273 175.416 30.5758 175.624 30.375C175.833 30.1705 175.994 29.9167 176.107 29.6136L177.403 29.9773C177.266 30.4167 177.037 30.803 176.715 31.1364C176.393 31.4659 175.996 31.7235 175.522 31.9091C175.049 32.0909 174.516 32.1818 173.925 32.1818ZM182.874 32.1818C182.147 32.1818 181.505 31.9981 180.948 31.6307C180.391 31.2595 179.956 30.7367 179.641 30.0625C179.327 29.3845 179.17 28.5833 179.17 27.6591C179.17 26.7424 179.327 25.947 179.641 25.2727C179.956 24.5985 180.393 24.0777 180.954 23.7102C181.514 23.3428 182.162 23.1591 182.897 23.1591C183.465 23.1591 183.914 23.2538 184.244 23.4432C184.577 23.6288 184.831 23.8409 185.005 24.0795C185.183 24.3144 185.321 24.5076 185.42 24.6591H185.533V20.3636H186.874V32H185.579V30.6591H185.42C185.321 30.8182 185.181 31.0189 184.999 31.2614C184.817 31.5 184.558 31.714 184.221 31.9034C183.884 32.089 183.435 32.1818 182.874 32.1818ZM183.056 30.9773C183.594 30.9773 184.049 30.8371 184.42 30.5568C184.791 30.2727 185.073 29.8807 185.266 29.3807C185.46 28.8769 185.556 28.2955 185.556 27.6364C185.556 26.9848 185.461 26.4148 185.272 25.9261C185.083 25.4337 184.802 25.0511 184.431 24.7784C184.06 24.5019 183.602 24.3636 183.056 24.3636C182.488 24.3636 182.014 24.5095 181.636 24.8011C181.261 25.089 180.978 25.4811 180.789 25.9773C180.603 26.4697 180.511 27.0227 180.511 27.6364C180.511 28.2576 180.605 28.822 180.795 29.3295C180.988 29.8333 181.272 30.2348 181.647 30.5341C182.026 30.8295 182.496 30.9773 183.056 30.9773ZM193.175 32.1818C192.335 32.1818 191.609 31.9962 190.999 31.625C190.393 31.25 189.925 30.7273 189.596 30.0568C189.27 29.3826 189.107 28.5985 189.107 27.7045C189.107 26.8106 189.27 26.0227 189.596 25.3409C189.925 24.6553 190.384 24.1212 190.971 23.7386C191.562 23.3523 192.251 23.1591 193.039 23.1591C193.494 23.1591 193.942 23.2348 194.386 23.3864C194.829 23.5379 195.232 23.7841 195.596 24.125C195.96 24.4621 196.249 24.9091 196.465 25.4659C196.681 26.0227 196.789 26.7083 196.789 27.5227V28.0909H190.062V26.9318H195.425C195.425 26.4394 195.327 26 195.13 25.6136C194.937 25.2273 194.66 24.9223 194.3 24.6989C193.944 24.4754 193.524 24.3636 193.039 24.3636C192.505 24.3636 192.043 24.4962 191.653 24.7614C191.266 25.0227 190.969 25.3636 190.761 25.7841C190.552 26.2045 190.448 26.6553 190.448 27.1364V27.9091C190.448 28.5682 190.562 29.1269 190.789 29.5852C191.02 30.0398 191.34 30.3864 191.749 30.625C192.158 30.8598 192.634 30.9773 193.175 30.9773C193.528 30.9773 193.846 30.928 194.13 30.8295C194.418 30.7273 194.666 30.5758 194.874 30.375C195.083 30.1705 195.244 29.9167 195.357 29.6136L196.653 29.9773C196.516 30.4167 196.287 30.803 195.965 31.1364C195.643 31.4659 195.246 31.7235 194.772 31.9091C194.299 32.0909 193.766 32.1818 193.175 32.1818ZM200.17 26.75V32H198.829V23.2727H200.124V24.6364H200.238C200.442 24.1932 200.753 23.8371 201.17 23.5682C201.586 23.2955 202.124 23.1591 202.783 23.1591C203.374 23.1591 203.891 23.2803 204.335 23.5227C204.778 23.7614 205.122 24.125 205.369 24.6136C205.615 25.0985 205.738 25.7121 205.738 26.4545V32H204.397V26.5455C204.397 25.8598 204.219 25.3258 203.863 24.9432C203.507 24.5568 203.018 24.3636 202.397 24.3636C201.969 24.3636 201.586 24.4564 201.249 24.642C200.916 24.8277 200.653 25.0985 200.46 25.4545C200.266 25.8106 200.17 26.2424 200.17 26.75Z" fill="#1E1E1E"/>
</svg>
