<svg width="304" height="48" viewBox="0 0 304 48" fill="none" xmlns="http://www.w3.org/2000/svg">
<path d="M44 38C44 39.0609 43.5786 40.0783 42.8284 40.8284C42.0783 41.5786 41.0609 42 40 42H8C6.93913 42 5.92172 41.5786 5.17157 40.8284C4.42143 40.0783 4 39.0609 4 38V10C4 8.93913 4.42143 7.92172 5.17157 7.17157C5.92172 6.42143 6.93913 6 8 6H18L22 12H40C41.0609 12 42.0783 12.4214 42.8284 13.1716C43.5786 13.9217 44 14.9391 44 16V38Z" stroke="#1E1E1E" stroke-width="4" stroke-linecap="round" stroke-linejoin="round"/>
<path d="M64 26C64 14.9543 72.9543 6 84 6H283C294.046 6 303 14.9543 303 26V26C303 37.0457 294.046 46 283 46H84C72.9543 46 64 37.0457 64 26V26Z" fill="white"/>
<path d="M84 6.5H283V5.5H84V6.5ZM283 45.5H84V46.5H283V45.5ZM84 45.5C73.2304 45.5 64.5 36.7696 64.5 26H63.5C63.5 37.3218 72.6782 46.5 84 46.5V45.5ZM302.5 26C302.5 36.7696 293.77 45.5 283 45.5V46.5C294.322 46.5 303.5 37.3218 303.5 26H302.5ZM283 6.5C293.77 6.5 302.5 15.2304 302.5 26H303.5C303.5 14.6782 294.322 5.5 283 5.5V6.5ZM84 5.5C72.6782 5.5 63.5 14.6782 63.5 26H64.5C64.5 15.2304 73.2304 6.5 84 6.5V5.5Z" fill="#D9D9D9"/>
<path d="M152.347 32V20.3636H153.756V30.75H159.165V32H152.347ZM161.165 32V23.2727H162.506V32H161.165ZM161.847 21.8182C161.585 21.8182 161.36 21.7292 161.17 21.5511C160.985 21.3731 160.892 21.1591 160.892 20.9091C160.892 20.6591 160.985 20.4451 161.17 20.267C161.36 20.089 161.585 20 161.847 20C162.108 20 162.331 20.089 162.517 20.267C162.706 20.4451 162.801 20.6591 162.801 20.9091C162.801 21.1591 162.706 21.3731 162.517 21.5511C162.331 21.7292 162.108 21.8182 161.847 21.8182ZM171.143 25.2273L169.939 25.5682C169.863 25.3674 169.751 25.1723 169.604 24.983C169.46 24.7898 169.263 24.6307 169.013 24.5057C168.763 24.3807 168.443 24.3182 168.053 24.3182C167.518 24.3182 167.073 24.4413 166.717 24.6875C166.365 24.9299 166.189 25.2386 166.189 25.6136C166.189 25.947 166.31 26.2102 166.553 26.4034C166.795 26.5966 167.174 26.7576 167.689 26.8864L168.984 27.2045C169.765 27.3939 170.346 27.6837 170.729 28.0739C171.111 28.4602 171.303 28.9583 171.303 29.5682C171.303 30.0682 171.159 30.5152 170.871 30.9091C170.587 31.303 170.189 31.6136 169.678 31.8409C169.166 32.0682 168.571 32.1818 167.893 32.1818C167.003 32.1818 166.267 31.9886 165.683 31.6023C165.1 31.2159 164.731 30.6515 164.575 29.9091L165.848 29.5909C165.969 30.0606 166.198 30.4129 166.536 30.6477C166.876 30.8826 167.321 31 167.871 31C168.496 31 168.992 30.8674 169.359 30.6023C169.731 30.3333 169.916 30.0114 169.916 29.6364C169.916 29.3333 169.81 29.0795 169.598 28.875C169.386 28.6667 169.06 28.5114 168.621 28.4091L167.166 28.0682C166.367 27.8788 165.78 27.5852 165.405 27.1875C165.034 26.786 164.848 26.2841 164.848 25.6818C164.848 25.1894 164.986 24.7538 165.263 24.375C165.543 23.9962 165.924 23.6989 166.405 23.483C166.89 23.267 167.439 23.1591 168.053 23.1591C168.916 23.1591 169.594 23.3485 170.087 23.7273C170.583 24.1061 170.935 24.6061 171.143 25.2273ZM177.116 23.2727V24.4091H172.594V23.2727H177.116ZM173.912 21.1818H175.253V29.5C175.253 29.8788 175.308 30.1629 175.418 30.3523C175.531 30.5379 175.675 30.6629 175.849 30.7273C176.027 30.7879 176.215 30.8182 176.412 30.8182C176.56 30.8182 176.681 30.8106 176.776 30.7955C176.87 30.7765 176.946 30.7614 177.003 30.75L177.276 31.9545C177.185 31.9886 177.058 32.0227 176.895 32.0568C176.732 32.0947 176.526 32.1136 176.276 32.1136C175.897 32.1136 175.526 32.0322 175.162 31.8693C174.802 31.7064 174.503 31.4583 174.264 31.125C174.029 30.7917 173.912 30.3712 173.912 29.8636V21.1818ZM182.585 32.1818C181.797 32.1818 181.106 31.9943 180.511 31.6193C179.92 31.2443 179.458 30.7197 179.125 30.0455C178.795 29.3712 178.631 28.5833 178.631 27.6818C178.631 26.7727 178.795 25.9792 179.125 25.3011C179.458 24.6231 179.92 24.0966 180.511 23.7216C181.106 23.3466 181.797 23.1591 182.585 23.1591C183.373 23.1591 184.063 23.3466 184.653 23.7216C185.248 24.0966 185.71 24.6231 186.04 25.3011C186.373 25.9792 186.54 26.7727 186.54 27.6818C186.54 28.5833 186.373 29.3712 186.04 30.0455C185.71 30.7197 185.248 31.2443 184.653 31.6193C184.063 31.9943 183.373 32.1818 182.585 32.1818ZM182.585 30.9773C183.184 30.9773 183.676 30.8239 184.062 30.517C184.449 30.2102 184.735 29.8068 184.92 29.3068C185.106 28.8068 185.199 28.2652 185.199 27.6818C185.199 27.0985 185.106 26.5549 184.92 26.0511C184.735 25.5473 184.449 25.1402 184.062 24.8295C183.676 24.5189 183.184 24.3636 182.585 24.3636C181.987 24.3636 181.494 24.5189 181.108 24.8295C180.722 25.1402 180.436 25.5473 180.25 26.0511C180.064 26.5549 179.972 27.0985 179.972 27.6818C179.972 28.2652 180.064 28.8068 180.25 29.3068C180.436 29.8068 180.722 30.2102 181.108 30.517C181.494 30.8239 181.987 30.9773 182.585 30.9773ZM188.587 35.2727V23.2727H189.882V24.6591H190.041C190.14 24.5076 190.276 24.3144 190.45 24.0795C190.628 23.8409 190.882 23.6288 191.212 23.4432C191.545 23.2538 191.996 23.1591 192.564 23.1591C193.299 23.1591 193.946 23.3428 194.507 23.7102C195.068 24.0777 195.505 24.5985 195.82 25.2727C196.134 25.947 196.291 26.7424 196.291 27.6591C196.291 28.5833 196.134 29.3845 195.82 30.0625C195.505 30.7367 195.07 31.2595 194.513 31.6307C193.956 31.9981 193.314 32.1818 192.587 32.1818C192.026 32.1818 191.577 32.089 191.24 31.9034C190.903 31.714 190.643 31.5 190.462 31.2614C190.28 31.0189 190.14 30.8182 190.041 30.6591H189.928V35.2727H188.587ZM189.905 27.6364C189.905 28.2955 190.001 28.8769 190.195 29.3807C190.388 29.8807 190.67 30.2727 191.041 30.5568C191.412 30.8371 191.867 30.9773 192.405 30.9773C192.965 30.9773 193.433 30.8295 193.808 30.5341C194.187 30.2348 194.471 29.8333 194.661 29.3295C194.854 28.822 194.95 28.2576 194.95 27.6364C194.95 27.0227 194.856 26.4697 194.666 25.9773C194.481 25.4811 194.198 25.089 193.82 24.8011C193.445 24.5095 192.973 24.3636 192.405 24.3636C191.859 24.3636 191.401 24.5019 191.03 24.7784C190.659 25.0511 190.378 25.4337 190.189 25.9261C190 26.4148 189.905 26.9848 189.905 27.6364ZM200.905 32.2045C200.352 32.2045 199.85 32.1004 199.399 31.892C198.948 31.6799 198.59 31.375 198.325 30.9773C198.06 30.5758 197.928 30.0909 197.928 29.5227C197.928 29.0227 198.026 28.6174 198.223 28.3068C198.42 27.9924 198.683 27.7462 199.013 27.5682C199.342 27.3902 199.706 27.2576 200.104 27.1705C200.505 27.0795 200.909 27.0076 201.314 26.9545C201.844 26.8864 202.274 26.8352 202.604 26.8011C202.937 26.7633 203.179 26.7008 203.331 26.6136C203.486 26.5265 203.564 26.375 203.564 26.1591V26.1136C203.564 25.553 203.411 25.1174 203.104 24.8068C202.801 24.4962 202.34 24.3409 201.723 24.3409C201.083 24.3409 200.581 24.4811 200.217 24.7614C199.854 25.0417 199.598 25.3409 199.45 25.6591L198.178 25.2045C198.405 24.6742 198.708 24.2614 199.087 23.9659C199.469 23.6667 199.886 23.4583 200.337 23.3409C200.791 23.2197 201.238 23.1591 201.678 23.1591C201.958 23.1591 202.28 23.1932 202.643 23.2614C203.011 23.3258 203.365 23.4602 203.706 23.6648C204.051 23.8693 204.337 24.178 204.564 24.5909C204.791 25.0038 204.905 25.5568 204.905 26.25V32H203.564V30.8182H203.496C203.405 31.0076 203.253 31.2102 203.041 31.4261C202.829 31.642 202.547 31.8258 202.195 31.9773C201.842 32.1288 201.412 32.2045 200.905 32.2045ZM201.109 31C201.64 31 202.087 30.8958 202.45 30.6875C202.818 30.4792 203.094 30.2102 203.28 29.8807C203.469 29.5511 203.564 29.2045 203.564 28.8409V27.6136C203.507 27.6818 203.382 27.7443 203.189 27.8011C203 27.8542 202.78 27.9015 202.53 27.9432C202.284 27.9811 202.043 28.0152 201.808 28.0455C201.577 28.072 201.39 28.0947 201.246 28.1136C200.897 28.1591 200.571 28.233 200.268 28.3352C199.969 28.4337 199.727 28.5833 199.541 28.7841C199.359 28.9811 199.268 29.25 199.268 29.5909C199.268 30.0568 199.441 30.4091 199.786 30.6477C200.134 30.8826 200.575 31 201.109 31ZM210.648 32.1818C209.92 32.1818 209.278 31.9981 208.722 31.6307C208.165 31.2595 207.729 30.7367 207.415 30.0625C207.1 29.3845 206.943 28.5833 206.943 27.6591C206.943 26.7424 207.1 25.947 207.415 25.2727C207.729 24.5985 208.167 24.0777 208.727 23.7102C209.288 23.3428 209.936 23.1591 210.67 23.1591C211.239 23.1591 211.688 23.2538 212.017 23.4432C212.35 23.6288 212.604 23.8409 212.778 24.0795C212.956 24.3144 213.095 24.5076 213.193 24.6591H213.307V20.3636H214.648V32H213.352V30.6591H213.193C213.095 30.8182 212.955 31.0189 212.773 31.2614C212.591 31.5 212.331 31.714 211.994 31.9034C211.657 32.089 211.208 32.1818 210.648 32.1818ZM210.83 30.9773C211.367 30.9773 211.822 30.8371 212.193 30.5568C212.564 30.2727 212.847 29.8807 213.04 29.3807C213.233 28.8769 213.33 28.2955 213.33 27.6364C213.33 26.9848 213.235 26.4148 213.045 25.9261C212.856 25.4337 212.576 25.0511 212.205 24.7784C211.833 24.5019 211.375 24.3636 210.83 24.3636C210.261 24.3636 209.788 24.5095 209.409 24.8011C209.034 25.089 208.752 25.4811 208.562 25.9773C208.377 26.4697 208.284 27.0227 208.284 27.6364C208.284 28.2576 208.379 28.822 208.568 29.3295C208.761 29.8333 209.045 30.2348 209.42 30.5341C209.799 30.8295 210.269 30.9773 210.83 30.9773Z" fill="#1E1E1E"/>
</svg>
