<svg width="304" height="48" viewBox="0 0 304 48" fill="none" xmlns="http://www.w3.org/2000/svg">
<path d="M44 38C44 39.0609 43.5786 40.0783 42.8284 40.8284C42.0783 41.5786 41.0609 42 40 42H8C6.93913 42 5.92172 41.5786 5.17157 40.8284C4.42143 40.0783 4 39.0609 4 38V10C4 8.93913 4.42143 7.92172 5.17157 7.17157C5.92172 6.42143 6.93913 6 8 6H18L22 12H40C41.0609 12 42.0783 12.4214 42.8284 13.1716C43.5786 13.9217 44 14.9391 44 16V38Z" stroke="#1E1E1E" stroke-width="4" stroke-linecap="round" stroke-linejoin="round"/>
<path d="M64 26C64 14.9543 72.9543 6 84 6H283C294.046 6 303 14.9543 303 26V26C303 37.0457 294.046 46 283 46H84C72.9543 46 64 37.0457 64 26V26Z" fill="white"/>
<path d="M84 6.5H283V5.5H84V6.5ZM283 45.5H84V46.5H283V45.5ZM84 45.5C73.2304 45.5 64.5 36.7696 64.5 26H63.5C63.5 37.3218 72.6782 46.5 84 46.5V45.5ZM302.5 26C302.5 36.7696 293.77 45.5 283 45.5V46.5C294.322 46.5 303.5 37.3218 303.5 26H302.5ZM283 6.5C293.77 6.5 302.5 15.2304 302.5 26H303.5C303.5 14.6782 294.322 5.5 283 5.5V6.5ZM84 5.5C72.6782 5.5 63.5 14.6782 63.5 26H64.5C64.5 15.2304 73.2304 6.5 84 6.5V5.5Z" fill="#D9D9D9"/>
<path d="M152.331 32V20.3636H156.263C157.176 20.3636 157.922 20.5284 158.501 20.858C159.085 21.1837 159.517 21.625 159.797 22.1818C160.077 22.7386 160.217 23.3598 160.217 24.0455C160.217 24.7311 160.077 25.3542 159.797 25.9148C159.52 26.4754 159.092 26.9223 158.513 27.2557C157.933 27.5852 157.191 27.75 156.286 27.75H153.467V26.5H156.24C156.865 26.5 157.367 26.392 157.746 26.1761C158.125 25.9602 158.399 25.6686 158.57 25.3011C158.744 24.9299 158.831 24.5114 158.831 24.0455C158.831 23.5795 158.744 23.1629 158.57 22.7955C158.399 22.428 158.123 22.1402 157.74 21.9318C157.357 21.7197 156.85 21.6136 156.217 21.6136H153.74V32H152.331ZM162.305 32V23.2727H163.601V24.5909H163.692C163.851 24.1591 164.139 23.8087 164.555 23.5398C164.972 23.2708 165.442 23.1364 165.964 23.1364C166.063 23.1364 166.186 23.1383 166.334 23.142C166.482 23.1458 166.593 23.1515 166.669 23.1591V24.5227C166.624 24.5114 166.519 24.4943 166.357 24.4716C166.197 24.4451 166.029 24.4318 165.851 24.4318C165.427 24.4318 165.048 24.5208 164.714 24.6989C164.385 24.8731 164.124 25.1155 163.93 25.4261C163.741 25.733 163.646 26.0833 163.646 26.4773V32H162.305ZM171.538 32.1818C170.75 32.1818 170.059 31.9943 169.464 31.6193C168.874 31.2443 168.411 30.7197 168.078 30.0455C167.749 29.3712 167.584 28.5833 167.584 27.6818C167.584 26.7727 167.749 25.9792 168.078 25.3011C168.411 24.6231 168.874 24.0966 169.464 23.7216C170.059 23.3466 170.75 23.1591 171.538 23.1591C172.326 23.1591 173.016 23.3466 173.607 23.7216C174.201 24.0966 174.663 24.6231 174.993 25.3011C175.326 25.9792 175.493 26.7727 175.493 27.6818C175.493 28.5833 175.326 29.3712 174.993 30.0455C174.663 30.7197 174.201 31.2443 173.607 31.6193C173.016 31.9943 172.326 32.1818 171.538 32.1818ZM171.538 30.9773C172.137 30.9773 172.629 30.8239 173.016 30.517C173.402 30.2102 173.688 29.8068 173.874 29.3068C174.059 28.8068 174.152 28.2652 174.152 27.6818C174.152 27.0985 174.059 26.5549 173.874 26.0511C173.688 25.5473 173.402 25.1402 173.016 24.8295C172.629 24.5189 172.137 24.3636 171.538 24.3636C170.94 24.3636 170.447 24.5189 170.061 24.8295C169.675 25.1402 169.389 25.5473 169.203 26.0511C169.018 26.5549 168.925 27.0985 168.925 27.6818C168.925 28.2652 169.018 28.8068 169.203 29.3068C169.389 29.8068 169.675 30.2102 170.061 30.517C170.447 30.8239 170.94 30.9773 171.538 30.9773ZM183.722 25.2273L182.517 25.5682C182.441 25.3674 182.33 25.1723 182.182 24.983C182.038 24.7898 181.841 24.6307 181.591 24.5057C181.341 24.3807 181.021 24.3182 180.631 24.3182C180.097 24.3182 179.652 24.4413 179.295 24.6875C178.943 24.9299 178.767 25.2386 178.767 25.6136C178.767 25.947 178.888 26.2102 179.131 26.4034C179.373 26.5966 179.752 26.7576 180.267 26.8864L181.562 27.2045C182.343 27.3939 182.924 27.6837 183.307 28.0739C183.689 28.4602 183.881 28.9583 183.881 29.5682C183.881 30.0682 183.737 30.5152 183.449 30.9091C183.165 31.303 182.767 31.6136 182.256 31.8409C181.744 32.0682 181.15 32.1818 180.472 32.1818C179.581 32.1818 178.845 31.9886 178.261 31.6023C177.678 31.2159 177.309 30.6515 177.153 29.9091L178.426 29.5909C178.547 30.0606 178.777 30.4129 179.114 30.6477C179.455 30.8826 179.9 31 180.449 31C181.074 31 181.57 30.8674 181.938 30.6023C182.309 30.3333 182.494 30.0114 182.494 29.6364C182.494 29.3333 182.388 29.0795 182.176 28.875C181.964 28.6667 181.638 28.5114 181.199 28.4091L179.744 28.0682C178.945 27.8788 178.358 27.5852 177.983 27.1875C177.612 26.786 177.426 26.2841 177.426 25.6818C177.426 25.1894 177.564 24.7538 177.841 24.375C178.121 23.9962 178.502 23.6989 178.983 23.483C179.468 23.267 180.017 23.1591 180.631 23.1591C181.494 23.1591 182.172 23.3485 182.665 23.7273C183.161 24.1061 183.513 24.6061 183.722 25.2273ZM185.899 32V23.2727H187.24V32H185.899ZM186.581 21.8182C186.32 21.8182 186.094 21.7292 185.905 21.5511C185.719 21.3731 185.626 21.1591 185.626 20.9091C185.626 20.6591 185.719 20.4451 185.905 20.267C186.094 20.089 186.32 20 186.581 20C186.842 20 187.066 20.089 187.251 20.267C187.441 20.4451 187.536 20.6591 187.536 20.9091C187.536 21.1591 187.441 21.3731 187.251 21.5511C187.066 21.7292 186.842 21.8182 186.581 21.8182ZM191.037 26.75V32H189.696V23.2727H190.991V24.6364H191.105C191.31 24.1932 191.62 23.8371 192.037 23.5682C192.454 23.2955 192.991 23.1591 193.651 23.1591C194.241 23.1591 194.759 23.2803 195.202 23.5227C195.645 23.7614 195.99 24.125 196.236 24.6136C196.482 25.0985 196.605 25.7121 196.605 26.4545V32H195.264V26.5455C195.264 25.8598 195.086 25.3258 194.73 24.9432C194.374 24.5568 193.885 24.3636 193.264 24.3636C192.836 24.3636 192.454 24.4564 192.116 24.642C191.783 24.8277 191.52 25.0985 191.327 25.4545C191.134 25.8106 191.037 26.2424 191.037 26.75ZM202.714 32.1818C201.874 32.1818 201.148 31.9962 200.538 31.625C199.932 31.25 199.464 30.7273 199.135 30.0568C198.809 29.3826 198.646 28.5985 198.646 27.7045C198.646 26.8106 198.809 26.0227 199.135 25.3409C199.464 24.6553 199.923 24.1212 200.51 23.7386C201.101 23.3523 201.79 23.1591 202.578 23.1591C203.033 23.1591 203.482 23.2348 203.925 23.3864C204.368 23.5379 204.771 23.7841 205.135 24.125C205.499 24.4621 205.788 24.9091 206.004 25.4659C206.22 26.0227 206.328 26.7083 206.328 27.5227V28.0909H199.601V26.9318H204.964C204.964 26.4394 204.866 26 204.669 25.6136C204.476 25.2273 204.199 24.9223 203.839 24.6989C203.483 24.4754 203.063 24.3636 202.578 24.3636C202.044 24.3636 201.582 24.4962 201.192 24.7614C200.805 25.0227 200.508 25.3636 200.3 25.7841C200.091 26.2045 199.987 26.6553 199.987 27.1364V27.9091C199.987 28.5682 200.101 29.1269 200.328 29.5852C200.559 30.0398 200.879 30.3864 201.288 30.625C201.697 30.8598 202.173 30.9773 202.714 30.9773C203.067 30.9773 203.385 30.928 203.669 30.8295C203.957 30.7273 204.205 30.5758 204.413 30.375C204.622 30.1705 204.783 29.9167 204.896 29.6136L206.192 29.9773C206.055 30.4167 205.826 30.803 205.504 31.1364C205.182 31.4659 204.785 31.7235 204.311 31.9091C203.838 32.0909 203.305 32.1818 202.714 32.1818ZM211.913 32.1818C211.095 32.1818 210.391 31.9886 209.8 31.6023C209.209 31.2159 208.754 30.6837 208.436 30.0057C208.118 29.3277 207.959 28.553 207.959 27.6818C207.959 26.7955 208.122 26.0133 208.447 25.3352C208.777 24.6534 209.235 24.1212 209.822 23.7386C210.413 23.3523 211.103 23.1591 211.891 23.1591C212.504 23.1591 213.057 23.2727 213.55 23.5C214.042 23.7273 214.446 24.0455 214.76 24.4545C215.074 24.8636 215.269 25.3409 215.345 25.8864H214.004C213.902 25.4886 213.675 25.1364 213.322 24.8295C212.974 24.5189 212.504 24.3636 211.913 24.3636C211.391 24.3636 210.932 24.5 210.538 24.7727C210.148 25.0417 209.843 25.4223 209.624 25.9148C209.408 26.4034 209.3 26.9773 209.3 27.6364C209.3 28.3106 209.406 28.8977 209.618 29.3977C209.834 29.8977 210.137 30.286 210.527 30.5625C210.921 30.839 211.383 30.9773 211.913 30.9773C212.262 30.9773 212.578 30.9167 212.862 30.7955C213.146 30.6742 213.387 30.5 213.584 30.2727C213.781 30.0455 213.921 29.7727 214.004 29.4545H215.345C215.269 29.9697 215.082 30.4337 214.783 30.8466C214.487 31.2557 214.095 31.5814 213.607 31.8239C213.122 32.0625 212.557 32.1818 211.913 32.1818Z" fill="#1E1E1E"/>
</svg>
