<svg width="304" height="48" viewBox="0 0 304 48" fill="none" xmlns="http://www.w3.org/2000/svg">
<path d="M44 38C44 39.0609 43.5786 40.0783 42.8284 40.8284C42.0783 41.5786 41.0609 42 40 42H8C6.93913 42 5.92172 41.5786 5.17157 40.8284C4.42143 40.0783 4 39.0609 4 38V10C4 8.93913 4.42143 7.92172 5.17157 7.17157C5.92172 6.42143 6.93913 6 8 6H18L22 12H40C41.0609 12 42.0783 12.4214 42.8284 13.1716C43.5786 13.9217 44 14.9391 44 16V38Z" stroke="#1E1E1E" stroke-width="4" stroke-linecap="round" stroke-linejoin="round"/>
<path d="M64 26C64 14.9543 72.9543 6 84 6H283C294.046 6 303 14.9543 303 26V26C303 37.0457 294.046 46 283 46H84C72.9543 46 64 37.0457 64 26V26Z" fill="white"/>
<path d="M84 6.5H283V5.5H84V6.5ZM283 45.5H84V46.5H283V45.5ZM84 45.5C73.2304 45.5 64.5 36.7696 64.5 26H63.5C63.5 37.3218 72.6782 46.5 84 46.5V45.5ZM302.5 26C302.5 36.7696 293.77 45.5 283 45.5V46.5C294.322 46.5 303.5 37.3218 303.5 26H302.5ZM283 6.5C293.77 6.5 302.5 15.2304 302.5 26H303.5C303.5 14.6782 294.322 5.5 283 5.5V6.5ZM84 5.5C72.6782 5.5 63.5 14.6782 63.5 26H64.5C64.5 15.2304 73.2304 6.5 84 6.5V5.5Z" fill="#D9D9D9"/>
<path d="M166.659 32V20.3636H170.591C171.5 20.3636 172.246 20.5189 172.83 20.8295C173.413 21.1364 173.845 21.5587 174.125 22.0966C174.405 22.6345 174.545 23.2462 174.545 23.9318C174.545 24.6174 174.405 25.2254 174.125 25.7557C173.845 26.286 173.415 26.7027 172.835 27.0057C172.256 27.3049 171.515 27.4545 170.614 27.4545H167.432V26.1818H170.568C171.189 26.1818 171.689 26.0909 172.068 25.9091C172.451 25.7273 172.727 25.4697 172.898 25.1364C173.072 24.7992 173.159 24.3977 173.159 23.9318C173.159 23.4659 173.072 23.0587 172.898 22.7102C172.723 22.3617 172.445 22.0928 172.062 21.9034C171.68 21.7102 171.174 21.6136 170.545 21.6136H168.068V32H166.659ZM172.136 26.7727L175 32H173.364L170.545 26.7727H172.136ZM169.114 16.8636L170.295 18.4545L171.477 16.8636H172.75V16.9545L170.909 19.3182H169.682L167.841 16.9545V16.8636H169.114ZM176.712 32V23.2727H178.053V32H176.712ZM176.78 22.0909L178.166 19.4545H179.734L177.962 22.0909H176.78ZM180.509 23.2727H181.849V32.6364C181.849 33.1742 181.757 33.6402 181.571 34.0341C181.389 34.428 181.113 34.733 180.741 34.9489C180.374 35.1648 179.91 35.2727 179.349 35.2727C179.304 35.2727 179.259 35.2727 179.213 35.2727C179.168 35.2727 179.122 35.2727 179.077 35.2727V34.0227C179.122 34.0227 179.164 34.0227 179.202 34.0227C179.24 34.0227 179.281 34.0227 179.327 34.0227C179.736 34.0227 180.035 33.9015 180.224 33.6591C180.414 33.4205 180.509 33.0795 180.509 32.6364V23.2727ZM181.168 21.8182C180.906 21.8182 180.681 21.7292 180.491 21.5511C180.306 21.3731 180.213 21.1591 180.213 20.9091C180.213 20.6591 180.306 20.4451 180.491 20.267C180.681 20.089 180.906 20 181.168 20C181.429 20 181.652 20.089 181.838 20.267C182.027 20.4451 182.122 20.6591 182.122 20.9091C182.122 21.1591 182.027 21.3731 181.838 21.5511C181.652 21.7292 181.429 21.8182 181.168 21.8182ZM187.964 32.1818C187.124 32.1818 186.398 31.9962 185.788 31.625C185.182 31.25 184.714 30.7273 184.385 30.0568C184.059 29.3826 183.896 28.5985 183.896 27.7045C183.896 26.8106 184.059 26.0227 184.385 25.3409C184.714 24.6553 185.173 24.1212 185.76 23.7386C186.351 23.3523 187.04 23.1591 187.828 23.1591C188.283 23.1591 188.732 23.2348 189.175 23.3864C189.618 23.5379 190.021 23.7841 190.385 24.125C190.749 24.4621 191.038 24.9091 191.254 25.4659C191.47 26.0227 191.578 26.7083 191.578 27.5227V28.0909H184.851V26.9318H190.214C190.214 26.4394 190.116 26 189.919 25.6136C189.726 25.2273 189.449 24.9223 189.089 24.6989C188.733 24.4754 188.313 24.3636 187.828 24.3636C187.294 24.3636 186.832 24.4962 186.442 24.7614C186.055 25.0227 185.758 25.3636 185.55 25.7841C185.341 26.2045 185.237 26.6553 185.237 27.1364V27.9091C185.237 28.5682 185.351 29.1269 185.578 29.5852C185.809 30.0398 186.129 30.3864 186.538 30.625C186.947 30.8598 187.423 30.9773 187.964 30.9773C188.317 30.9773 188.635 30.928 188.919 30.8295C189.207 30.7273 189.455 30.5758 189.663 30.375C189.872 30.1705 190.033 29.9167 190.146 29.6136L191.442 29.9773C191.305 30.4167 191.076 30.803 190.754 31.1364C190.432 31.4659 190.035 31.7235 189.561 31.9091C189.088 32.0909 188.555 32.1818 187.964 32.1818ZM194.959 26.75V32H193.618V23.2727H194.913V24.6364H195.027C195.232 24.1932 195.542 23.8371 195.959 23.5682C196.375 23.2955 196.913 23.1591 197.572 23.1591C198.163 23.1591 198.68 23.2803 199.124 23.5227C199.567 23.7614 199.911 24.125 200.158 24.6136C200.404 25.0985 200.527 25.7121 200.527 26.4545V32H199.186V26.5455C199.186 25.8598 199.008 25.3258 198.652 24.9432C198.296 24.5568 197.807 24.3636 197.186 24.3636C196.758 24.3636 196.375 24.4564 196.038 24.642C195.705 24.8277 195.442 25.0985 195.249 25.4545C195.055 25.8106 194.959 26.2424 194.959 26.75Z" fill="#1E1E1E"/>
</svg>
