<svg width="304" height="48" viewBox="0 0 304 48" fill="none" xmlns="http://www.w3.org/2000/svg">
<path d="M44 38C44 39.0609 43.5786 40.0783 42.8284 40.8284C42.0783 41.5786 41.0609 42 40 42H8C6.93913 42 5.92172 41.5786 5.17157 40.8284C4.42143 40.0783 4 39.0609 4 38V10C4 8.93913 4.42143 7.92172 5.17157 7.17157C5.92172 6.42143 6.93913 6 8 6H18L22 12H40C41.0609 12 42.0783 12.4214 42.8284 13.1716C43.5786 13.9217 44 14.9391 44 16V38Z" stroke="#1E1E1E" stroke-width="4" stroke-linecap="round" stroke-linejoin="round"/>
<path d="M64 26C64 14.9543 72.9543 6 84 6H283C294.046 6 303 14.9543 303 26V26C303 37.0457 294.046 46 283 46H84C72.9543 46 64 37.0457 64 26V26Z" fill="white"/>
<path d="M84 6.5H283V5.5H84V6.5ZM283 45.5H84V46.5H283V45.5ZM84 45.5C73.2304 45.5 64.5 36.7696 64.5 26H63.5C63.5 37.3218 72.6782 46.5 84 46.5V45.5ZM302.5 26C302.5 36.7696 293.77 45.5 283 45.5V46.5C294.322 46.5 303.5 37.3218 303.5 26H302.5ZM283 6.5C293.77 6.5 302.5 15.2304 302.5 26H303.5C303.5 14.6782 294.322 5.5 283 5.5V6.5ZM84 5.5C72.6782 5.5 63.5 14.6782 63.5 26H64.5C64.5 15.2304 73.2304 6.5 84 6.5V5.5Z" fill="#D9D9D9"/>
<path d="M174.186 20.3636H175.595V28.0682C175.595 28.8636 175.408 29.5739 175.033 30.1989C174.661 30.8201 174.137 31.3106 173.459 31.6705C172.781 32.0265 171.985 32.2045 171.072 32.2045C170.16 32.2045 169.364 32.0265 168.686 31.6705C168.008 31.3106 167.482 30.8201 167.107 30.1989C166.735 29.5739 166.55 28.8636 166.55 28.0682V20.3636H167.959V27.9545C167.959 28.5227 168.084 29.0284 168.334 29.4716C168.584 29.911 168.94 30.2576 169.402 30.5114C169.868 30.7614 170.425 30.8864 171.072 30.8864C171.72 30.8864 172.277 30.7614 172.743 30.5114C173.209 30.2576 173.565 29.911 173.811 29.4716C174.061 29.0284 174.186 28.5227 174.186 27.9545V20.3636ZM170.459 19.1818L171.845 16.5455H173.413L171.641 19.1818H170.459ZM179.568 26.75V32H178.227V23.2727H179.523V24.6364H179.636C179.841 24.1932 180.152 23.8371 180.568 23.5682C180.985 23.2955 181.523 23.1591 182.182 23.1591C182.773 23.1591 183.29 23.2803 183.733 23.5227C184.176 23.7614 184.521 24.125 184.767 24.6136C185.013 25.0985 185.136 25.7121 185.136 26.4545V32H183.795V26.5455C183.795 25.8598 183.617 25.3258 183.261 24.9432C182.905 24.5568 182.417 24.3636 181.795 24.3636C181.367 24.3636 180.985 24.4564 180.648 24.642C180.314 24.8277 180.051 25.0985 179.858 25.4545C179.665 25.8106 179.568 26.2424 179.568 26.75ZM191.132 32.1818C190.344 32.1818 189.653 31.9943 189.058 31.6193C188.467 31.2443 188.005 30.7197 187.672 30.0455C187.342 29.3712 187.178 28.5833 187.178 27.6818C187.178 26.7727 187.342 25.9792 187.672 25.3011C188.005 24.6231 188.467 24.0966 189.058 23.7216C189.653 23.3466 190.344 23.1591 191.132 23.1591C191.92 23.1591 192.609 23.3466 193.2 23.7216C193.795 24.0966 194.257 24.6231 194.587 25.3011C194.92 25.9792 195.087 26.7727 195.087 27.6818C195.087 28.5833 194.92 29.3712 194.587 30.0455C194.257 30.7197 193.795 31.2443 193.2 31.6193C192.609 31.9943 191.92 32.1818 191.132 32.1818ZM191.132 30.9773C191.731 30.9773 192.223 30.8239 192.609 30.517C192.996 30.2102 193.282 29.8068 193.467 29.3068C193.653 28.8068 193.746 28.2652 193.746 27.6818C193.746 27.0985 193.653 26.5549 193.467 26.0511C193.282 25.5473 192.996 25.1402 192.609 24.8295C192.223 24.5189 191.731 24.3636 191.132 24.3636C190.534 24.3636 190.041 24.5189 189.655 24.8295C189.268 25.1402 188.982 25.5473 188.797 26.0511C188.611 26.5549 188.518 27.0985 188.518 27.6818C188.518 28.2652 188.611 28.8068 188.797 29.3068C188.982 29.8068 189.268 30.2102 189.655 30.517C190.041 30.8239 190.534 30.9773 191.132 30.9773ZM197.134 32V23.2727H198.429V24.5909H198.52C198.679 24.1591 198.967 23.8087 199.384 23.5398C199.8 23.2708 200.27 23.1364 200.793 23.1364C200.891 23.1364 201.014 23.1383 201.162 23.142C201.31 23.1458 201.421 23.1515 201.497 23.1591V24.5227C201.452 24.5114 201.348 24.4943 201.185 24.4716C201.026 24.4451 200.857 24.4318 200.679 24.4318C200.255 24.4318 199.876 24.5208 199.543 24.6989C199.213 24.8731 198.952 25.1155 198.759 25.4261C198.569 25.733 198.474 26.0833 198.474 26.4773V32H197.134Z" fill="#1E1E1E"/>
</svg>
