<svg width="304" height="48" viewBox="0 0 304 48" fill="none" xmlns="http://www.w3.org/2000/svg">
<path d="M44 38C44 39.0609 43.5786 40.0783 42.8284 40.8284C42.0783 41.5786 41.0609 42 40 42H8C6.93913 42 5.92172 41.5786 5.17157 40.8284C4.42143 40.0783 4 39.0609 4 38V10C4 8.93913 4.42143 7.92172 5.17157 7.17157C5.92172 6.42143 6.93913 6 8 6H18L22 12H40C41.0609 12 42.0783 12.4214 42.8284 13.1716C43.5786 13.9217 44 14.9391 44 16V38Z" stroke="#1E1E1E" stroke-width="4" stroke-linecap="round" stroke-linejoin="round"/>
<path d="M64 26C64 14.9543 72.9543 6 84 6H283C294.046 6 303 14.9543 303 26V26C303 37.0457 294.046 46 283 46H84C72.9543 46 64 37.0457 64 26V26Z" fill="white"/>
<path d="M84 6.5H283V5.5H84V6.5ZM283 45.5H84V46.5H283V45.5ZM84 45.5C73.2304 45.5 64.5 36.7696 64.5 26H63.5C63.5 37.3218 72.6782 46.5 84 46.5V45.5ZM302.5 26C302.5 36.7696 293.77 45.5 283 45.5V46.5C294.322 46.5 303.5 37.3218 303.5 26H302.5ZM283 6.5C293.77 6.5 302.5 15.2304 302.5 26H303.5C303.5 14.6782 294.322 5.5 283 5.5V6.5ZM84 5.5C72.6782 5.5 63.5 14.6782 63.5 26H64.5C64.5 15.2304 73.2304 6.5 84 6.5V5.5Z" fill="#D9D9D9"/>
<path d="M170.14 32V30.9773L176.413 21.6136H170.072V20.3636H178.094V21.3864L171.822 30.75H178.163V32H170.14ZM182.913 32.2045C182.36 32.2045 181.858 32.1004 181.407 31.892C180.956 31.6799 180.598 31.375 180.333 30.9773C180.068 30.5758 179.935 30.0909 179.935 29.5227C179.935 29.0227 180.034 28.6174 180.231 28.3068C180.428 27.9924 180.691 27.7462 181.021 27.5682C181.35 27.3902 181.714 27.2576 182.112 27.1705C182.513 27.0795 182.916 27.0076 183.322 26.9545C183.852 26.8864 184.282 26.8352 184.612 26.8011C184.945 26.7633 185.187 26.7008 185.339 26.6136C185.494 26.5265 185.572 26.375 185.572 26.1591V26.1136C185.572 25.553 185.418 25.1174 185.112 24.8068C184.808 24.4962 184.348 24.3409 183.731 24.3409C183.091 24.3409 182.589 24.4811 182.225 24.7614C181.862 25.0417 181.606 25.3409 181.458 25.6591L180.185 25.2045C180.413 24.6742 180.716 24.2614 181.094 23.9659C181.477 23.6667 181.894 23.4583 182.344 23.3409C182.799 23.2197 183.246 23.1591 183.685 23.1591C183.966 23.1591 184.288 23.1932 184.651 23.2614C185.019 23.3258 185.373 23.4602 185.714 23.6648C186.058 23.8693 186.344 24.178 186.572 24.5909C186.799 25.0038 186.913 25.5568 186.913 26.25V32H185.572V30.8182H185.504C185.413 31.0076 185.261 31.2102 185.049 31.4261C184.837 31.642 184.555 31.8258 184.202 31.9773C183.85 32.1288 183.42 32.2045 182.913 32.2045ZM183.117 31C183.647 31 184.094 30.8958 184.458 30.6875C184.826 30.4792 185.102 30.2102 185.288 29.8807C185.477 29.5511 185.572 29.2045 185.572 28.8409V27.6136C185.515 27.6818 185.39 27.7443 185.197 27.8011C185.007 27.8542 184.788 27.9015 184.538 27.9432C184.291 27.9811 184.051 28.0152 183.816 28.0455C183.585 28.072 183.397 28.0947 183.254 28.1136C182.905 28.1591 182.579 28.233 182.276 28.3352C181.977 28.4337 181.735 28.5833 181.549 28.7841C181.367 28.9811 181.276 29.25 181.276 29.5909C181.276 30.0568 181.449 30.4091 181.793 30.6477C182.142 30.8826 182.583 31 183.117 31ZM183.163 22.0909L184.549 19.4545H186.117L184.344 22.0909H183.163ZM189.36 32V23.2727H190.656V24.5909H190.746C190.906 24.1591 191.193 23.8087 191.61 23.5398C192.027 23.2708 192.496 23.1364 193.019 23.1364C193.118 23.1364 193.241 23.1383 193.388 23.142C193.536 23.1458 193.648 23.1515 193.724 23.1591V24.5227C193.678 24.5114 193.574 24.4943 193.411 24.4716C193.252 24.4451 193.084 24.4318 192.906 24.4318C192.481 24.4318 192.103 24.5208 191.769 24.6989C191.44 24.8731 191.178 25.1155 190.985 25.4261C190.796 25.733 190.701 26.0833 190.701 26.4773V32H189.36ZM190.246 19.7727L191.428 21.3636L192.61 19.7727H193.883V19.8636L192.042 22.2273H190.815L188.974 19.8636V19.7727H190.246ZM195.313 32V23.2727H196.654V32H195.313ZM195.381 22.0909L196.768 19.4545H198.336L196.563 22.0909H195.381Z" fill="#1E1E1E"/>
</svg>
